<?xml version="1.0" encoding="utf-8"?>
<!-- Generator: Adobe Illustrator 21.1.0, SVG Export Plug-In . SVG Version: 6.00 Build 0)  -->
<!DOCTYPE svg PUBLIC "-//W3C//DTD SVG 1.1//EN" "http://www.w3.org/Graphics/SVG/1.1/DTD/svg11.dtd">
<svg version="1.1" id="Ebene_1" xmlns="http://www.w3.org/2000/svg" xmlns:xlink="http://www.w3.org/1999/xlink" x="0px" y="0px"
	 width="156.2px" height="24px" viewBox="0 0 156.2 24" style="enable-background:new 0 0 156.2 24;" xml:space="preserve">
<style type="text/css">
	.st0{fill:#F5C910;}
	.st1{fill:#2C110A;}
</style>
<g>
	<path class="st0" d="M152.9,0.6V0h-10.9L142,0c-0.2,0.1-0.4,0.1-0.6,0.2c-0.2,0.1-0.4,0.2-0.5,0.4l-1.1,1.1l0,0l0,0l0,0l0,0
		l-1.1-1.1c-0.1-0.1-0.3-0.3-0.5-0.4c-0.2-0.1-0.4-0.2-0.6-0.2l-0.1,0h-8.9l-0.1,0c-0.2,0.1-0.4,0.1-0.6,0.2
		c-0.2,0.1-0.4,0.2-0.5,0.4l-1.1,1.1v0l0,0l0,0l0,0l-1.1-1.1c-0.1-0.1-0.3-0.3-0.5-0.4c-0.2-0.1-0.4-0.2-0.6-0.2L124,0h-22.4
		c-0.3,0-0.6,0.1-0.8,0.2c-0.3,0.1-0.5,0.3-0.7,0.5l-1.1,1.1v0l0,0l0,0l-1.1-1.1l0,0c-0.2-0.2-0.5-0.4-0.7-0.5
		C96.6,0.1,96.4,0,96.1,0h-8.7l-0.1,0c-0.2,0.1-0.4,0.1-0.6,0.2c-0.2,0.1-0.4,0.2-0.5,0.4l-1.1,1.1l0,0l0,0l0,0l0,0l-1.1-1.1h0
		c-0.1-0.1-0.3-0.3-0.5-0.4C83.2,0.1,83,0.1,82.8,0l-0.1,0h-17c-0.9,0-1.7,0.4-2.3,1c-0.6,0.6-1,1.5-1,2.3v5.2h0l0,2.9v0l0,0l0,0
		l0.2,0.6v-0.6H59c-0.3,0-0.7,0.1-1,0.2l0.2,0.6h0.6V4.8c0-0.3-0.1-0.6-0.2-0.8c-0.1-0.3-0.3-0.5-0.5-0.7l-2.5-2.5
		c-0.2-0.2-0.5-0.4-0.7-0.5c-0.3-0.1-0.6-0.2-0.8-0.2H46c-0.3,0-0.6,0.1-0.8,0.2c-0.3,0.1-0.5,0.3-0.7,0.5l-1.1,1.1l0,0l0,0l0,0
		l-1.1-1.1l0,0c-0.2-0.2-0.5-0.4-0.7-0.5c-0.3-0.1-0.6-0.2-0.8-0.2H3.3C1.5,0.1,0,1.6,0,3.4v17.3c0,0.9,0.4,1.7,1,2.3
		c0.6,0.6,1.4,1,2.3,1h10.8l0.1,0c0.2,0,0.4-0.1,0.6-0.2c0.2-0.1,0.4-0.2,0.6-0.4l1.1-1.1l0,0l0,0l0,0l0,0l1.1,1.1
		c0.2,0.2,0.4,0.3,0.6,0.4c0.2,0.1,0.4,0.2,0.6,0.2l0.1,0h7.3l0.1,0c0.2,0,0.4-0.1,0.6-0.2c0.2-0.1,0.4-0.2,0.6-0.4l1.1-1.1l0,0l0,0
		l0,0l1.1,1.1l0,0c0.2,0.2,0.4,0.3,0.6,0.4c0.2,0.1,0.4,0.2,0.6,0.2l0.1,0h9.5c0.3,0,0.6-0.1,0.8-0.2c0.3-0.1,0.5-0.3,0.7-0.5l0,0
		l1.1-1.1l0,0l0,0l0,0l0,0l1.1,1.1l0,0c0.2,0.2,0.5,0.4,0.7,0.5c0.3,0.1,0.5,0.2,0.8,0.2h8.1c0.3,0,0.6-0.1,0.8-0.2
		c0.3-0.1,0.5-0.3,0.7-0.5l1.6-1.7l1.5,1.6c0.2,0.2,0.5,0.4,0.7,0.5c0.3,0.1,0.5,0.2,0.8,0.2h7.8c0.3,0,0.6-0.1,0.8-0.2
		c0.3-0.1,0.5-0.3,0.7-0.5l0.6-0.6l0,0l0,0l0,0l0.6,0.6c0.2,0.2,0.5,0.4,0.7,0.5c0.3,0.1,0.5,0.2,0.8,0.2h11.2
		c0.3,0,0.6-0.1,0.8-0.2c0.3-0.1,0.5-0.3,0.7-0.5l0.6-0.6l0,0l0,0l0.6,0.6c0.2,0.2,0.5,0.4,0.7,0.5c0.3,0.1,0.5,0.2,0.8,0.2h7.8
		c0.3,0,0.6-0.1,0.8-0.2c0.3-0.1,0.5-0.3,0.7-0.5l0.6-0.6l0,0l0,0l0.6,0.6l0,0c0.2,0.2,0.5,0.4,0.7,0.5c0.3,0.1,0.5,0.2,0.8,0.2h20
		c0.4,0,0.7-0.1,0.9-0.4c0.2-0.2,0.4-0.6,0.4-0.9v-5.5l0,0l0,0h3.4l0,0l0,0v5.5c0,0.4,0.1,0.7,0.4,0.9c0.2,0.2,0.6,0.4,0.9,0.4h11.3
		c0.3,0,0.6-0.1,0.8-0.2c0.3-0.1,0.5-0.3,0.7-0.5l3.6-3.7l0,0l0-0.1l0,0.1l0,0l0-0.1l0,0.1l-0.2-0.3v0.3c0.1,0,0.2,0,0.2,0l-0.2-0.3
		v0.3v-0.5l-0.2,0.4c0.1,0,0.2,0.1,0.2,0.1v-0.5l-0.2,0.4l0.2-0.4l-0.4,0.3c0,0,0.1,0.1,0.1,0.1l0.2-0.4l-0.4,0.3l0.2-0.2l-0.3,0.1
		c0,0,0,0.1,0.1,0.1l0.2-0.2l-0.3,0.1l0.1,0l-0.1,0l0,0l0.1,0l-0.1,0l0,0l0,0l0,0l0,0l0,0l0,0v3.3c0,0.4,0.1,0.7,0.4,0.9
		c0.2,0.2,0.6,0.4,0.9,0.4h7.9c0.4,0,0.7-0.1,0.9-0.4c0.2-0.2,0.4-0.6,0.4-0.9v-14l0,0l0,0h2c0.7,0,1.3-0.6,1.3-1.3v-2h-0.6v0.6h0.6
		V3.3c0-0.9-0.3-1.7-1-2.3c-0.6-0.6-1.4-1-2.3-1v1.2c0.6,0,1.1,0.2,1.4,0.6c0.4,0.4,0.6,0.9,0.6,1.4v0v2h0.6V4.7H155v2.6l0,0l0,0h-2
		c-0.4,0-0.7,0.1-0.9,0.4c-0.2,0.2-0.4,0.6-0.4,0.9v14l0,0l0,0h-7.9l0,0l0,0v-3.3c0-0.1,0-0.2,0-0.3c0-0.2-0.1-0.3-0.2-0.4
		c-0.1-0.2-0.3-0.2-0.6-0.2c-0.1,0-0.3,0-0.4,0.1c-0.1,0.1-0.2,0.1-0.3,0.2l-3.6,3.7c-0.1,0.1-0.2,0.2-0.3,0.2
		c-0.1,0.1-0.2,0.1-0.4,0.1h-11.3l0,0l0,0v-5.5c0-0.7-0.6-1.3-1.3-1.3h-3.4c-0.7,0-1.3,0.6-1.3,1.3v5.5l0,0l0,0h-20
		c-0.1,0-0.3,0-0.4-0.1c-0.1,0-0.2-0.1-0.3-0.2l0,0l-0.6-0.6c-0.5-0.5-1.3-0.5-1.8,0c0,0,0,0,0,0l-0.6,0.6l0,0c0,0-0.2,0.1-0.3,0.2
		c-0.1,0.1-0.2,0.1-0.4,0.1h-7.8c-0.1,0-0.3,0-0.4-0.1c-0.1,0-0.2-0.1-0.3-0.2l-0.6-0.6c-0.5-0.5-1.3-0.5-1.8,0c0,0,0,0,0,0
		l-0.6,0.6l0,0c-0.1,0.1-0.2,0.2-0.3,0.2c-0.1,0.1-0.2,0.1-0.4,0.1H72.6c-0.1,0-0.3,0-0.4-0.1c-0.1,0-0.2-0.1-0.3-0.2l-0.6-0.6l0,0
		c-0.5-0.5-1.3-0.5-1.8,0c0,0,0,0,0,0l-0.6,0.6c0,0-0.2,0.1-0.3,0.2c-0.1,0.1-0.2,0.1-0.4,0.1h-7.8c-0.1,0-0.3,0-0.4-0.1
		c-0.1,0-0.2-0.1-0.3-0.2l-2.4-2.4l-2.5,2.5c0,0-0.2,0.1-0.3,0.2c-0.1,0.1-0.2,0.1-0.4,0.1H46c-0.1,0-0.3,0-0.4-0.1
		c-0.1,0-0.2-0.1-0.3-0.2l-1.1-1.1l0,0c-0.5-0.5-1.3-0.5-1.8,0l-1.1,1.1l0,0c0,0-0.2,0.1-0.3,0.2c-0.1,0.1-0.2,0.1-0.4,0.1h-9.4v0.6
		l0.1-0.6c-0.1,0-0.2-0.1-0.3-0.1c-0.1,0-0.2-0.1-0.2-0.2l0,0l-1.1-1.1l0,0c-0.5-0.5-1.3-0.5-1.8,0c0,0,0,0,0,0l-1.1,1.1
		c-0.1,0.1-0.1,0.1-0.2,0.2c-0.1,0.1-0.2,0.1-0.3,0.1l0.1,0.6v-0.6H19v0.6l0.1-0.6c-0.1,0-0.2-0.1-0.3-0.1c-0.1,0-0.2-0.1-0.2-0.2
		l0,0l-1.1-1.1l0,0c-0.5-0.5-1.3-0.5-1.8,0c0,0,0,0,0,0l0,0l-1.1,1.1c-0.1,0.1-0.1,0.1-0.2,0.2c-0.1,0.1-0.2,0.1-0.3,0.1l0.1,0.6
		v-0.6H3.3c-0.6,0-1.1-0.2-1.4-0.6c-0.4-0.4-0.6-0.9-0.6-1.4V3.4c0-0.6,0.2-1.1,0.6-1.4c0.4-0.4,0.9-0.6,1.4-0.6h37.3
		c0.1,0,0.3,0,0.4,0.1c0.1,0.1,0.3,0.1,0.3,0.2l0,0l1.1,1.1l0,0c0.5,0.5,1.3,0.5,1.8,0c0,0,0,0,0,0l1.1-1.1c0.1-0.1,0.2-0.2,0.3-0.2
		c0.1-0.1,0.2-0.1,0.4-0.1h8.1c0.1,0,0.3,0,0.4,0.1c0.1,0.1,0.3,0.2,0.3,0.2l2.5,2.5l0,0c0,0,0.1,0.2,0.2,0.3
		c0.1,0.1,0.1,0.3,0.1,0.4V13l0.8-0.3c0.2-0.1,0.4-0.1,0.6-0.1h3.8l0.1,0c0.5-0.2,0.9-0.7,0.9-1.2v0l0-4.2h0V3.3
		c0-0.6,0.2-1.1,0.6-1.4c0.4-0.4,0.9-0.6,1.4-0.6h16.9V0.6l-0.2,0.6c0.1,0,0.2,0.1,0.3,0.1c0.1,0,0.1,0.1,0.2,0.1l1.1,1.1l0,0
		c0.5,0.5,1.3,0.5,1.8,0c0,0,0,0,0,0l1.1-1.1v0c0.1-0.1,0.1-0.1,0.2-0.1c0.1-0.1,0.2-0.1,0.3-0.1l-0.2-0.6v0.6h8.6
		c0.1,0,0.2,0,0.4,0.1c0.1,0.1,0.3,0.2,0.3,0.2l0,0l1.1,1.1c0.5,0.5,1.3,0.5,1.8,0c0,0,0,0,0,0l0,0l1.1-1.1l0,0c0,0,0.2-0.1,0.3-0.2
		c0.1-0.1,0.2-0.1,0.4-0.1h22.4V0.6l-0.2,0.6c0.1,0,0.2,0.1,0.3,0.1c0.1,0,0.1,0.1,0.2,0.1l1.1,1.1l0,0c0.5,0.5,1.3,0.5,1.8,0
		c0,0,0,0,0,0l1.1-1.1l0,0c0.1-0.1,0.1-0.1,0.2-0.1c0.1-0.1,0.2-0.1,0.3-0.1l-0.2-0.6v0.6h8.8V0.6l-0.2,0.6c0.1,0,0.2,0.1,0.3,0.1
		c0.1,0,0.1,0.1,0.2,0.1l1.1,1.1l0,0c0.5,0.5,1.3,0.5,1.8,0c0,0,0,0,0,0l0,0l1.1-1.1c0.1-0.1,0.1-0.1,0.2-0.1
		c0.1-0.1,0.2-0.1,0.3-0.1l-0.2-0.6v0.6h10.8L152.9,0.6L152.9,0.6z"/>
	<path class="st1" d="M152.9,0.6h-10.8c-0.3,0.1-0.6,0.2-0.8,0.4l-1.1,1.1c-0.3,0.3-0.7,0.3-0.9,0c0,0,0,0,0,0L138.2,1
		c-0.2-0.2-0.5-0.3-0.8-0.4h-8.8c-0.3,0.1-0.6,0.2-0.8,0.4l-1.1,1.1c-0.3,0.3-0.7,0.3-0.9,0c0,0,0,0,0,0L124.7,1
		c-0.2-0.2-0.5-0.3-0.8-0.4h-22.4c-0.4,0-0.9,0.2-1.1,0.5l-1.1,1.1c-0.3,0.3-0.7,0.3-0.9,0l-1.1-1.1c-0.3-0.3-0.8-0.5-1.1-0.5h-8.6
		c-0.3,0.1-0.6,0.2-0.8,0.4l-1.1,1.1c-0.3,0.3-0.7,0.3-0.9,0c0,0,0,0,0,0L83.5,1c-0.2-0.2-0.5-0.3-0.8-0.4H65.8
		c-1.5,0-2.7,1.2-2.7,2.7v4.5h0l0,3.5c0,0.3-0.2,0.5-0.5,0.6H59c-0.3,0-0.5,0-0.8,0.1V4.8c0-0.4-0.2-0.9-0.5-1.1l-2.5-2.5
		c-0.3-0.3-0.8-0.5-1.1-0.5H46c-0.4,0-0.9,0.2-1.1,0.5l-1.1,1.1c-0.3,0.3-0.7,0.3-0.9,0c0,0,0,0,0,0l-1.1-1.1
		c-0.3-0.3-0.8-0.5-1.1-0.5H3.3c-1.5,0-2.7,1.2-2.7,2.7v17.3c0,1.5,1.2,2.7,2.7,2.7H14c0.3-0.1,0.7-0.2,0.9-0.4l1.1-1.1
		c0.3-0.3,0.7-0.3,0.9,0c0,0,0,0,0,0l1.1,1.1c0.2,0.2,0.6,0.4,0.9,0.4h7.2c0.3-0.1,0.7-0.2,0.9-0.4l1.1-1.1c0.3-0.3,0.7-0.3,0.9,0
		c0,0,0,0,0,0l1.1,1.1c0.2,0.2,0.6,0.4,0.9,0.4h9.4c0.4,0,0.9-0.2,1.1-0.5l1.1-1.1c0.3-0.3,0.7-0.3,0.9,0c0,0,0,0,0,0l1.1,1.1
		c0.3,0.3,0.8,0.5,1.1,0.5h8.1c0.4,0,0.9-0.2,1.1-0.5l2.1-2.1l2,2c0.3,0.3,0.8,0.5,1.1,0.5h7.8c0.4,0,0.9-0.2,1.1-0.5l0.6-0.6
		c0.3-0.3,0.7-0.3,0.9,0c0,0,0,0,0,0l0.6,0.6c0.3,0.3,0.8,0.5,1.1,0.5h11.2c0.4,0,0.9-0.2,1.1-0.5l0.6-0.6c0.3-0.3,0.7-0.3,0.9,0
		l0.6,0.6c0.3,0.3,0.8,0.5,1.1,0.5h7.8c0.4,0,0.9-0.2,1.1-0.5l0.6-0.6c0.3-0.3,0.7-0.3,0.9,0l0.6,0.6c0.3,0.3,0.8,0.5,1.1,0.5h20
		c0.4,0,0.7-0.3,0.7-0.7v-5.5c0-0.4,0.3-0.7,0.7-0.7h3.4c0.4,0,0.7,0.3,0.7,0.7v5.5c0,0.4,0.3,0.7,0.7,0.7h11.3
		c0.4,0,0.9-0.2,1.1-0.5l3.6-3.7c0.3-0.3,0.5-0.2,0.5,0.2v3.3c0,0.4,0.3,0.7,0.7,0.7h7.9c0.4,0,0.7-0.3,0.7-0.7v-14
		c0-0.4,0.3-0.7,0.7-0.7h2c0.4,0,0.7-0.3,0.7-0.7v-4C155.6,1.8,154.4,0.6,152.9,0.6"/>
	<path class="st0" d="M12,18c-0.6,0-0.8,0.3-0.8,0.8c0,0.6,0.3,0.8,0.8,0.8s0.8-0.3,0.8-0.8C12.8,18.3,12.5,18,12,18 M5.2,4.3
		c-0.6,0-0.8,0.3-0.8,0.8C4.4,5.7,4.6,6,5.2,6C5.7,6,6,5.7,6,5.2C6,4.6,5.7,4.3,5.2,4.3 M6.9,4.3c-0.6,0-0.8,0.3-0.8,0.8
		C6.1,5.7,6.3,6,6.9,6h0c0.5,0,0.8-0.3,0.8-0.8l0,0l0,0C7.7,4.6,7.4,4.3,6.9,4.3 M8.6,4.3C8,4.3,7.8,4.6,7.8,5.2v0
		C7.8,5.7,8,6,8.6,6h0c0.5,0,0.8-0.3,0.8-0.8v0C9.4,4.6,9.1,4.3,8.6,4.3 M10.3,4.3c-0.6,0-0.8,0.3-0.8,0.8v0C9.5,5.7,9.7,6,10.3,6h0
		c0.5,0,0.8-0.3,0.8-0.8v0C11.1,4.6,10.8,4.3,10.3,4.3 M12,6L12,6c0.6,0,0.8-0.3,0.8-0.8c0-0.6-0.3-0.8-0.8-0.8
		c-0.6,0-0.8,0.3-0.8,0.8v0C11.2,5.7,11.4,6,12,6 M11.2,12c0,0.6,0.3,0.8,0.8,0.8s0.8-0.3,0.8-0.8c0-0.6-0.3-0.8-0.8-0.8
		C11.4,11.2,11.2,11.4,11.2,12 M10.3,12.8c0.6,0,0.8-0.3,0.8-0.8s-0.3-0.8-0.8-0.8c-0.6,0-0.8,0.3-0.8,0.8v0
		C9.5,12.6,9.7,12.8,10.3,12.8 M8.6,18c-0.6,0-0.8,0.3-0.8,0.8v0c0,0.6,0.3,0.8,0.8,0.8s0.8-0.3,0.8-0.8v0C9.4,18.3,9.1,18,8.6,18
		 M6.9,18c-0.6,0-0.8,0.3-0.8,0.8v0c0,0.6,0.3,0.8,0.8,0.8s0.8-0.3,0.8-0.8v0C7.7,18.3,7.4,18,6.9,18 M5.2,18
		c-0.6,0-0.8,0.3-0.8,0.8c0,0.6,0.3,0.8,0.8,0.8c0.6,0,0.8-0.3,0.8-0.8v0C6,18.3,5.7,18,5.2,18 M5.2,12.9c-0.6,0-0.8,0.3-0.8,0.8
		c0,0.6,0.3,0.8,0.8,0.8c0.5,0,0.8-0.3,0.8-0.8v0C6,13.2,5.7,12.9,5.2,12.9 M5.2,16.2C5.7,16.2,6,16,6,15.4v0c0-0.5-0.3-0.8-0.8-0.8
		c-0.6,0-0.8,0.3-0.8,0.8C4.4,16,4.6,16.2,5.2,16.2 M5.2,18C5.7,18,6,17.7,6,17.1v0c0-0.5-0.3-0.8-0.8-0.8c-0.6,0-0.8,0.3-0.8,0.8
		C4.4,17.7,4.6,18,5.2,18 M5.2,11.2c-0.6,0-0.8,0.3-0.8,0.8s0.3,0.8,0.8,0.8C5.7,12.8,6,12.6,6,12C6,11.4,5.7,11.2,5.2,11.2
		 M8.6,11.2c-0.6,0-0.8,0.3-0.8,0.8l0,0l0,0c0,0.6,0.3,0.8,0.8,0.8c0.6,0,0.8-0.3,0.8-0.8v0C9.4,11.4,9.1,11.2,8.6,11.2 M6.9,11.2
		c-0.6,0-0.8,0.3-0.8,0.8s0.3,0.8,0.8,0.8c0.5,0,0.8-0.3,0.8-0.8l0,0l0,0C7.7,11.4,7.4,11.2,6.9,11.2 M5.2,9.5L5.2,9.5
		c-0.6,0-0.8,0.3-0.8,0.8c0,0.6,0.3,0.8,0.8,0.8c0.6,0,0.8-0.3,0.8-0.8C6,9.7,5.7,9.5,5.2,9.5 M5.2,7.8C4.6,7.8,4.4,8,4.4,8.6
		s0.3,0.8,0.8,0.8h0C5.7,9.4,6,9.1,6,8.6S5.7,7.8,5.2,7.8 M5.2,6C4.6,6,4.4,6.3,4.4,6.9c0,0.6,0.3,0.8,0.8,0.8C5.7,7.7,6,7.4,6,6.9
		v0C6,6.3,5.7,6,5.2,6 M10.3,19.7c0.6,0,0.8-0.3,0.8-0.8S10.8,18,10.3,18c-0.6,0-0.8,0.3-0.8,0.8v0C9.5,19.4,9.7,19.7,10.3,19.7
		 M12,16.3c-0.6,0-0.8,0.3-0.8,0.8c0,0.6,0.3,0.8,0.8,0.8c0.6,0,0.8-0.3,0.8-0.8C12.8,16.6,12.5,16.3,12,16.3 M10.3,16.3
		c-0.6,0-0.8,0.3-0.8,0.8v0c0,0.6,0.3,0.8,0.8,0.8c0.6,0,0.8-0.3,0.8-0.8C11.1,16.6,10.8,16.3,10.3,16.3 M8.6,16.3
		c-0.6,0-0.8,0.3-0.8,0.8C7.8,17.7,8,18,8.6,18c0.6,0,0.8-0.3,0.8-0.8v0C9.4,16.6,9.1,16.3,8.6,16.3 M6.9,18c0.6,0,0.8-0.3,0.8-0.8
		c0-0.6-0.3-0.8-0.8-0.8c-0.5,0-0.8,0.3-0.8,0.8v0C6.1,17.7,6.3,18,6.9,18 M6.9,16.2L6.9,16.2c0.6,0,0.8-0.3,0.8-0.8
		s-0.3-0.8-0.8-0.8c-0.5,0-0.8,0.3-0.8,0.8v0C6.1,16,6.3,16.2,6.9,16.2"/>
	<path class="st0" d="M6.9,12.9c-0.5,0-0.8,0.3-0.8,0.8v0c0,0.5,0.3,0.8,0.8,0.8c0.6,0,0.8-0.3,0.8-0.8h0.1c0,0.6,0.3,0.8,0.8,0.8
		c0.6,0,0.8-0.3,0.8-0.8h0.1c0,0.6,0.3,0.8,0.8,0.8c0.6,0,0.8-0.3,0.8-0.8h0.1c0,0.6,0.3,0.8,0.8,0.8c0.6,0,0.8-0.3,0.8-0.8h0.1
		c0,0.6,0.3,0.8,0.8,0.8c0.6,0,0.8-0.3,0.8-0.8c0-0.6-0.3-0.8-0.8-0.8v-0.1c0.6,0,0.8-0.3,0.8-0.8c0-0.6-0.3-0.8-0.8-0.8v-0.1
		c0.6,0,0.8-0.3,0.8-0.8c0-0.6-0.3-0.8-0.8-0.8c-0.6,0-0.8,0.3-0.8,0.8h0c0,0.6,0.3,0.8,0.8,0.8v0.1c-0.6,0-0.8,0.3-0.8,0.8
		s0.3,0.8,0.8,0.8v0.1c-0.6,0-0.8,0.3-0.8,0.8h-0.1c0-0.6-0.3-0.8-0.8-0.8c-0.6,0-0.8,0.3-0.8,0.8h-0.1c0-0.6-0.3-0.8-0.8-0.8
		c-0.6,0-0.8,0.3-0.8,0.8H9.4c0-0.6-0.3-0.8-0.8-0.8c-0.6,0-0.8,0.3-0.8,0.8H7.7C7.7,13.2,7.4,12.9,6.9,12.9"/>
	<path class="st0" d="M12.8,10.3c0-0.6-0.3-0.8-0.8-0.8c-0.6,0-0.8,0.3-0.8,0.8s0.3,0.8,0.8,0.8S12.8,10.8,12.8,10.3z M10.3,9.5
		c-0.6,0-0.8,0.3-0.8,0.8v0c0,0.6,0.3,0.8,0.8,0.8c0.6,0,0.8-0.3,0.8-0.8C11.1,9.7,10.8,9.5,10.3,9.5 M8.6,9.5
		c-0.6,0-0.8,0.3-0.8,0.8l0,0l0,0c0,0.6,0.3,0.8,0.8,0.8c0.6,0,0.8-0.3,0.8-0.8v0C9.4,9.7,9.1,9.5,8.6,9.5 M6.9,9.5L6.9,9.5
		c-0.6,0-0.8,0.3-0.8,0.8c0,0.6,0.3,0.8,0.8,0.8c0.6,0,0.8-0.3,0.8-0.8l0,0l0,0C7.7,9.7,7.4,9.5,6.9,9.5 M6.9,7.8
		C6.3,7.8,6.1,8,6.1,8.6s0.3,0.8,0.8,0.8h0c0.6,0,0.8-0.3,0.8-0.8S7.4,7.8,6.9,7.8 M6.9,7.7c0.6,0,0.8-0.3,0.8-0.8v0
		C7.7,6.3,7.4,6,6.9,6h0C6.3,6,6.1,6.3,6.1,6.9v0C6.1,7.4,6.3,7.7,6.9,7.7 M8.6,7.7c0.6,0,0.8-0.3,0.8-0.8v0C9.4,6.3,9.1,6,8.6,6h0
		C8,6,7.8,6.3,7.8,6.9v0C7.8,7.4,8,7.7,8.6,7.7 M10.3,6L10.3,6C9.7,6,9.5,6.3,9.5,6.9l0,0l0,0c0,0.6,0.3,0.8,0.8,0.8
		c0.6,0,0.8-0.3,0.8-0.8C11.1,6.3,10.8,6,10.3,6 M12,7.7c0.6,0,0.8-0.3,0.8-0.8C12.8,6.3,12.5,6,12,6l0,0l0,0
		c-0.5,0-0.8,0.3-0.8,0.8C11.2,7.4,11.4,7.7,12,7.7 M14.5,3.5c0-0.6-0.3-0.8-0.8-0.8c-0.6,0-0.8,0.3-0.8,0.8h0
		c0,0.6,0.3,0.8,0.8,0.8v0.1c-0.6,0-0.8,0.3-0.8,0.8c0,0.6,0.3,0.8,0.8,0.8V6c-0.6,0-0.8,0.3-0.8,0.8h0c0,0.6,0.3,0.8,0.8,0.8
		c0.6,0,0.8-0.3,0.8-0.8c0-0.6-0.3-0.8-0.8-0.8V6c0.6,0,0.8-0.3,0.8-0.8c0-0.6-0.3-0.8-0.8-0.8V4.3C14.2,4.3,14.5,4,14.5,3.5
		 M12,4.3c0.6,0,0.8-0.3,0.8-0.8c0-0.6-0.3-0.8-0.8-0.8c-0.6,0-0.8,0.3-0.8,0.8C11.2,4,11.4,4.3,12,4.3 M10.3,4.3
		c0.6,0,0.8-0.3,0.8-0.8c0-0.6-0.3-0.8-0.8-0.8c-0.6,0-0.8,0.3-0.8,0.8C9.5,4,9.7,4.3,10.3,4.3 M8.6,4.3c0.6,0,0.8-0.3,0.8-0.8
		c0-0.6-0.3-0.8-0.8-0.8C8,2.6,7.8,2.9,7.8,3.5C7.8,4,8,4.3,8.6,4.3 M6.9,4.3c0.6,0,0.8-0.3,0.8-0.8c0-0.6-0.3-0.8-0.8-0.8
		c-0.6,0-0.8,0.3-0.8,0.8C6.1,4,6.3,4.3,6.9,4.3 M5.2,4.3C5.7,4.3,6,4,6,3.5c0-0.6-0.3-0.8-0.8-0.8c-0.6,0-0.8,0.3-0.8,0.8
		C4.4,4,4.6,4.3,5.2,4.3"/>
	<path class="st0" d="M14.5,17.1c0-0.6-0.3-0.8-0.8-0.8c-0.6,0-0.8,0.3-0.8,0.8h0c0,0.6,0.3,0.8,0.8,0.8V18c-0.6,0-0.8,0.3-0.8,0.8
		c0,0.6,0.3,0.8,0.8,0.8v0.1c-0.6,0-0.8,0.3-0.8,0.8h-0.1c0-0.6-0.3-0.8-0.8-0.8c-0.6,0-0.8,0.3-0.8,0.8h-0.1c0-0.6-0.3-0.8-0.8-0.8
		S9.5,20,9.5,20.5H9.4c0-0.6-0.3-0.8-0.8-0.8c-0.6,0-0.8,0.3-0.8,0.8H7.7c0-0.6-0.3-0.8-0.8-0.8c-0.6,0-0.8,0.3-0.8,0.8H6
		c0-0.6-0.3-0.8-0.8-0.8c-0.6,0-0.8,0.3-0.8,0.8H4.3c0-0.6-0.3-0.8-0.8-0.8v-0.1c0.6,0,0.8-0.3,0.8-0.8S4,18,3.5,18V18
		c0.6,0,0.8-0.3,0.8-0.8c0-0.6-0.3-0.8-0.8-0.8v-0.1c0.6,0,0.8-0.3,0.8-0.8c0-0.6-0.3-0.8-0.8-0.8v-0.1c0.6,0,0.8-0.3,0.8-0.8
		c0-0.6-0.3-0.8-0.8-0.8v-0.1c0.6,0,0.8-0.3,0.8-0.8c0-0.6-0.3-0.8-0.8-0.8v-0.1c0.6,0,0.8-0.3,0.8-0.8c0-0.6-0.3-0.8-0.8-0.8V9.4
		c0.6,0,0.8-0.3,0.8-0.8S4,7.8,3.5,7.8V7.7c0.6,0,0.8-0.3,0.8-0.8C4.3,6.3,4,6,3.5,6V6C4,6,4.3,5.7,4.3,5.2c0-0.6-0.3-0.8-0.8-0.8
		V4.3C4,4.3,4.3,4,4.3,3.5h0c0-0.6-0.3-0.8-0.8-0.8c-0.6,0-0.8,0.3-0.8,0.8c0,0.6,0.3,0.8,0.8,0.8v0.1c-0.6,0-0.8,0.3-0.8,0.8
		C2.7,5.7,2.9,6,3.5,6V6C2.9,6,2.7,6.3,2.7,6.9c0,0.6,0.3,0.8,0.8,0.8v0.1C2.9,7.8,2.7,8,2.7,8.6s0.3,0.8,0.8,0.8v0.1
		c-0.6,0-0.8,0.3-0.8,0.8c0,0.6,0.3,0.8,0.8,0.8v0.1c-0.6,0-0.8,0.3-0.8,0.8c0,0.6,0.3,0.8,0.8,0.8v0.1c-0.6,0-0.8,0.3-0.8,0.8
		c0,0.6,0.3,0.8,0.8,0.8v0.1c-0.6,0-0.8,0.3-0.8,0.8c0,0.6,0.3,0.8,0.8,0.8v0.1c-0.6,0-0.8,0.3-0.8,0.8c0,0.6,0.3,0.8,0.8,0.8V18
		c-0.6,0-0.8,0.3-0.8,0.8c0,0.6,0.3,0.8,0.8,0.8v0.1c-0.6,0-0.8,0.3-0.8,0.8c0,0.6,0.3,0.8,0.8,0.8c0.6,0,0.8-0.3,0.8-0.8h0.1
		c0,0.6,0.3,0.8,0.8,0.8c0.6,0,0.8-0.3,0.8-0.8h0.1c0,0.6,0.3,0.8,0.8,0.8c0.6,0,0.8-0.3,0.8-0.8h0.1c0,0.6,0.3,0.8,0.8,0.8
		c0.6,0,0.8-0.3,0.8-0.8h0.1c0,0.6,0.3,0.8,0.8,0.8c0.6,0,0.8-0.3,0.8-0.8h0.1c0,0.6,0.3,0.8,0.8,0.8c0.6,0,0.8-0.3,0.8-0.8h0.1
		c0,0.6,0.3,0.8,0.8,0.8c0.6,0,0.8-0.3,0.8-0.8c0-0.6-0.3-0.8-0.8-0.8v-0.1c0.6,0,0.8-0.3,0.8-0.8c0-0.6-0.3-0.8-0.8-0.8V18
		C14.2,18,14.5,17.7,14.5,17.1 M27.7,18c-0.6,0-0.8,0.3-0.8,0.8h-0.1c0-0.6-0.3-0.8-0.8-0.8c-0.6,0-0.8,0.3-0.8,0.8s0.3,0.8,0.8,0.8
		c0.6,0,0.8-0.3,0.8-0.8h0.1c0,0.6,0.3,0.8,0.8,0.8c0.6,0,0.8-0.3,0.8-0.8C28.5,18.3,28.2,18,27.7,18 M19.2,4.3
		c-0.6,0-0.8,0.3-0.8,0.8c0,0.6,0.3,0.8,0.8,0.8h0C19.7,6,20,5.7,20,5.2v0C20,4.6,19.7,4.3,19.2,4.3 M18.3,17.1
		c0,0.6,0.3,0.8,0.8,0.8c0.6,0,0.8-0.3,0.8-0.8c0-0.6-0.3-0.8-0.8-0.8C18.6,16.3,18.3,16.6,18.3,17.1 M19.2,6L19.2,6
		c-0.6,0-0.8,0.3-0.8,0.8c0,0.6,0.3,0.8,0.8,0.8c0.6,0,0.8-0.3,0.8-0.8v0C20,6.3,19.7,6,19.2,6 M19.2,7.8c-0.6,0-0.8,0.3-0.8,0.8
		s0.3,0.8,0.8,0.8h0c0.5,0,0.8-0.3,0.8-0.8v0C20,8,19.7,7.8,19.2,7.8 M19.2,9.5L19.2,9.5c-0.6,0-0.8,0.3-0.8,0.8
		c0,0.6,0.3,0.8,0.8,0.8c0.6,0,0.8-0.3,0.8-0.8v0C20,9.7,19.7,9.5,19.2,9.5 M19.2,11.2c-0.6,0-0.8,0.3-0.8,0.8s0.3,0.8,0.8,0.8
		c0.6,0,0.8-0.3,0.8-0.8v0C20,11.4,19.7,11.2,19.2,11.2 M19.2,12.9c-0.6,0-0.8,0.3-0.8,0.8c0,0.6,0.3,0.8,0.8,0.8
		c0.6,0,0.8-0.3,0.8-0.8v0C20,13.2,19.7,12.9,19.2,12.9 M19.2,14.6c-0.6,0-0.8,0.3-0.8,0.8c0,0.6,0.3,0.8,0.8,0.8
		c0.6,0,0.8-0.3,0.8-0.8v0C20,14.9,19.7,14.6,19.2,14.6 M20.9,19.7c0.6,0,0.8-0.3,0.8-0.8S21.4,18,20.9,18c-0.6,0-0.8,0.3-0.8,0.8v0
		C20,19.4,20.3,19.7,20.9,19.7 M22.6,18c-0.6,0-0.8,0.3-0.8,0.8c0,0.6,0.3,0.8,0.8,0.8c0.6,0,0.8-0.3,0.8-0.8c0-0.3-0.1-0.5-0.2-0.6
		C23,18.1,22.8,18,22.6,18 M26,4.3c-0.6,0-0.8,0.3-0.8,0.8v0C25.1,5.7,25.4,6,26,6h0c0.6,0,0.8-0.3,0.8-0.8
		C26.8,4.6,26.5,4.3,26,4.3 M26,18c0.6,0,0.8-0.3,0.8-0.8c0-0.6-0.3-0.8-0.8-0.8c-0.6,0-0.8,0.3-0.8,0.8v0C25.1,17.7,25.4,18,26,18
		 M26,14.6c-0.6,0-0.8,0.3-0.8,0.8v0c0,0.6,0.3,0.8,0.8,0.8c0.6,0,0.8-0.3,0.8-0.8C26.8,14.9,26.5,14.6,26,14.6 M26,12.9
		c-0.6,0-0.8,0.3-0.8,0.8v0c0,0.6,0.3,0.8,0.8,0.8c0.6,0,0.8-0.3,0.8-0.8C26.8,13.2,26.5,12.9,26,12.9 M26,11.2
		c-0.6,0-0.8,0.3-0.8,0.8v0c0,0.6,0.3,0.8,0.8,0.8c0.6,0,0.8-0.3,0.8-0.8C26.8,11.4,26.5,11.2,26,11.2 M26,9.5L26,9.5
		c-0.6,0-0.8,0.3-0.8,0.8l0,0l0,0c0,0.6,0.3,0.8,0.8,0.8c0.6,0,0.8-0.3,0.8-0.8C26.8,9.7,26.5,9.5,26,9.5 M26,9.4L26,9.4
		c0.6,0,0.8-0.3,0.8-0.8S26.5,7.8,26,7.8c-0.6,0-0.8,0.3-0.8,0.8v0C25.1,9.1,25.4,9.4,26,9.4 M26,7.7c0.6,0,0.8-0.3,0.8-0.8
		C26.8,6.3,26.5,6,26,6h0c-0.5,0-0.8,0.3-0.8,0.8v0C25.1,7.4,25.4,7.7,26,7.7 M23.4,18.8c0,0.6,0.3,0.8,0.8,0.8
		c0.6,0,0.8-0.3,0.8-0.8c0-0.6-0.3-0.8-0.8-0.8C23.7,18,23.4,18.3,23.4,18.8 M27.7,16.3c-0.6,0-0.8,0.3-0.8,0.8
		c0,0.6,0.3,0.8,0.8,0.8c0.6,0,0.8-0.3,0.8-0.8C28.5,16.6,28.2,16.3,27.7,16.3 M27.7,14.6c-0.6,0-0.8,0.3-0.8,0.8
		c0,0.6,0.3,0.8,0.8,0.8c0.6,0,0.8-0.3,0.8-0.8C28.5,14.9,28.2,14.6,27.7,14.6 M27.7,12.9c-0.6,0-0.8,0.3-0.8,0.8
		c0,0.6,0.3,0.8,0.8,0.8c0.6,0,0.8-0.3,0.8-0.8C28.5,13.2,28.2,12.9,27.7,12.9 M27.7,11.2c-0.6,0-0.8,0.3-0.8,0.8s0.3,0.8,0.8,0.8
		c0.6,0,0.8-0.3,0.8-0.8S28.2,11.2,27.7,11.2 M27.7,9.5c-0.6,0-0.8,0.3-0.8,0.8c0,0.6,0.3,0.8,0.8,0.8c0.6,0,0.8-0.3,0.8-0.8
		C28.5,9.7,28.2,9.5,27.7,9.5 M27.7,9.4c0.6,0,0.8-0.3,0.8-0.8c0-0.6-0.3-0.8-0.8-0.8c-0.6,0-0.8,0.3-0.8,0.8
		C26.8,9.1,27.1,9.4,27.7,9.4 M27.7,7.7c0.3,0,0.5-0.1,0.6-0.2c0.1-0.1,0.2-0.3,0.2-0.6c0-0.6-0.3-0.8-0.8-0.8
		c-0.6,0-0.8,0.3-0.8,0.8C26.8,7.4,27.1,7.7,27.7,7.7 M27.7,4.3c-0.6,0-0.8,0.3-0.8,0.8c0,0.6,0.3,0.8,0.8,0.8
		c0.6,0,0.8-0.3,0.8-0.8C28.5,4.6,28.2,4.3,27.7,4.3 M27.7,2.6c-0.6,0-0.8,0.3-0.8,0.8c0,0.6,0.3,0.8,0.8,0.8c0.6,0,0.8-0.3,0.8-0.8
		C28.5,2.9,28.2,2.6,27.7,2.6 M26,4.3c0.6,0,0.8-0.3,0.8-0.8c0-0.6-0.3-0.8-0.8-0.8c-0.6,0-0.8,0.3-0.8,0.8C25.1,4,25.4,4.3,26,4.3
		 M23.4,13.7c0,0.6,0.3,0.8,0.8,0.8v0.1c-0.6,0-0.8,0.3-0.8,0.8c0,0.6,0.3,0.8,0.8,0.8v0.1c-0.6,0-0.8,0.3-0.8,0.8
		c0,0.6,0.3,0.8,0.8,0.8c0.6,0,0.8-0.3,0.8-0.8v0c0-0.6-0.3-0.8-0.8-0.8v-0.1c0.6,0,0.8-0.3,0.8-0.8v0c0-0.6-0.3-0.8-0.8-0.8v-0.1
		c0.6,0,0.8-0.3,0.8-0.8v0c0-0.6-0.3-0.8-0.8-0.8v-0.1c0.6,0,0.8-0.3,0.8-0.8v0c0-0.6-0.3-0.8-0.8-0.8v-0.1c0.6,0,0.8-0.3,0.8-0.8v0
		c0-0.6-0.3-0.8-0.8-0.8V9.4c0.6,0,0.8-0.3,0.8-0.8v0c0-0.6-0.3-0.8-0.8-0.8V7.7c0.6,0,0.8-0.3,0.8-0.8v0c0-0.6-0.3-0.8-0.8-0.8V6
		c0.6,0,0.8-0.3,0.8-0.8v0c0-0.6-0.3-0.8-0.8-0.8V4.3c0.6,0,0.8-0.3,0.8-0.8h0c0-0.6-0.3-0.8-0.8-0.8c-0.6,0-0.8,0.3-0.8,0.8
		c0,0.6,0.3,0.8,0.8,0.8v0.1c-0.6,0-0.8,0.3-0.8,0.8c0,0.6,0.3,0.8,0.8,0.8V6c-0.6,0-0.8,0.3-0.8,0.8c0,0.6,0.3,0.8,0.8,0.8v0.1
		c-0.6,0-0.8,0.3-0.8,0.8c0,0.6,0.3,0.8,0.8,0.8v0.1c-0.6,0-0.8,0.3-0.8,0.8c0,0.6,0.3,0.8,0.8,0.8v0.1c-0.6,0-0.8,0.3-0.8,0.8
		c0,0.6,0.3,0.8,0.8,0.8v0.1C23.7,12.9,23.4,13.2,23.4,13.7 M22.6,18c0.6,0,0.8-0.3,0.8-0.8h0c0-0.6-0.3-0.8-0.8-0.8
		c-0.6,0-0.8,0.3-0.8,0.8C21.7,17.7,22,18,22.6,18 M21.7,17.1c0-0.6-0.3-0.8-0.8-0.8c-0.6,0-0.8,0.3-0.8,0.8c0,0.6,0.3,0.8,0.8,0.8
		C21.4,18,21.7,17.7,21.7,17.1L21.7,17.1z M20.9,16.2c0.6,0,0.8-0.3,0.8-0.8c0-0.6-0.3-0.8-0.8-0.8S20,14.9,20,15.4l0,0l0,0
		C20,16,20.3,16.2,20.9,16.2 M20.9,14.5c0.6,0,0.8-0.3,0.8-0.8c0-0.6-0.3-0.8-0.8-0.8S20,13.2,20,13.7l0,0l0,0
		C20,14.3,20.3,14.5,20.9,14.5 M20.9,12.8c0.6,0,0.8-0.3,0.8-0.8s-0.3-0.8-0.8-0.8S20,11.4,20,12l0,0l0,0
		C20,12.6,20.3,12.8,20.9,12.8 M20.9,11.1c0.6,0,0.8-0.3,0.8-0.8c0-0.6-0.3-0.8-0.8-0.8h0c-0.5,0-0.8,0.3-0.8,0.8l0,0l0,0
		C20,10.8,20.3,11.1,20.9,11.1 M20.9,7.8L20.9,7.8C20.3,7.8,20,8,20,8.6l0,0l0,0c0,0.6,0.3,0.8,0.8,0.8h0c0.6,0,0.8-0.3,0.8-0.8
		C21.7,8,21.4,7.8,20.9,7.8 M20.9,7.7c0.6,0,0.8-0.3,0.8-0.8c0-0.6-0.3-0.8-0.8-0.8h0C20.3,6,20,6.3,20,6.9v0
		C20,7.4,20.3,7.7,20.9,7.7 M20.9,4.3c-0.6,0-0.8,0.3-0.8,0.8l0,0v0C20,5.7,20.3,6,20.9,6c0.6,0,0.8-0.3,0.8-0.8
		C21.7,4.6,21.4,4.3,20.9,4.3 M20.9,4.3c0.6,0,0.8-0.3,0.8-0.8s-0.3-0.8-0.8-0.8c-0.6,0-0.8,0.3-0.8,0.8S20.3,4.3,20.9,4.3
		 M19.2,4.3C19.7,4.3,20,4,20,3.5h0c0-0.6-0.3-0.8-0.8-0.8c-0.6,0-0.8,0.3-0.8,0.8h0C18.3,4,18.6,4.3,19.2,4.3"/>
	<path class="st0" d="M26,19.7c-0.6,0-0.8,0.3-0.8,0.8h-0.1c0-0.6-0.3-0.8-0.8-0.8c-0.6,0-0.8,0.3-0.8,0.8h-0.1
		c0-0.6-0.3-0.8-0.8-0.8c-0.6,0-0.8,0.3-0.8,0.8h-0.1c0-0.6-0.3-0.8-0.8-0.8c-0.6,0-0.8,0.3-0.8,0.8H20c0-0.6-0.3-0.8-0.8-0.8v-0.1
		c0.6,0,0.8-0.3,0.8-0.8l0,0l0,0c0-0.6-0.3-0.8-0.8-0.8c-0.6,0-0.8,0.3-0.8,0.8h-0.1c0-0.6-0.3-0.8-0.8-0.8V18
		c0.6,0,0.8-0.3,0.8-0.8c0-0.6-0.3-0.8-0.8-0.8v-0.1c0.6,0,0.8-0.3,0.8-0.8c0-0.6-0.3-0.8-0.8-0.8v-0.1c0.6,0,0.8-0.3,0.8-0.8
		s-0.3-0.8-0.8-0.8v-0.1c0.6,0,0.8-0.3,0.8-0.8s-0.3-0.8-0.8-0.8v-0.1c0.6,0,0.8-0.3,0.8-0.8S18,9.5,17.5,9.5V9.4
		c0.6,0,0.8-0.3,0.8-0.8c0-0.6-0.3-0.8-0.8-0.8V7.7c0.6,0,0.8-0.3,0.8-0.8C18.3,6.3,18,6,17.5,6V6c0.6,0,0.8-0.3,0.8-0.8
		c0-0.6-0.3-0.8-0.8-0.8V4.3c0.6,0,0.8-0.3,0.8-0.8h0c0-0.6-0.3-0.8-0.8-0.8c-0.6,0-0.8,0.3-0.8,0.8c0,0.6,0.3,0.8,0.8,0.8v0.1
		c-0.6,0-0.8,0.3-0.8,0.8c0,0.6,0.3,0.8,0.8,0.8V6c-0.6,0-0.8,0.3-0.8,0.8c0,0.6,0.3,0.8,0.8,0.8v0.1c-0.6,0-0.8,0.3-0.8,0.8
		c0,0.6,0.3,0.8,0.8,0.8v0.1c-0.6,0-0.8,0.3-0.8,0.8s0.3,0.8,0.8,0.8v0.1c-0.6,0-0.8,0.3-0.8,0.8s0.3,0.8,0.8,0.8v0.1
		c-0.6,0-0.8,0.3-0.8,0.8c0,0.6,0.3,0.8,0.8,0.8v0.1c-0.6,0-0.8,0.3-0.8,0.8c0,0.6,0.3,0.8,0.8,0.8v0.1c-0.6,0-0.8,0.3-0.8,0.8
		c0,0.6,0.3,0.8,0.8,0.8V18c-0.6,0-0.8,0.3-0.8,0.8c0,0.6,0.3,0.8,0.8,0.8c0.6,0,0.8-0.3,0.8-0.8h0.1c0,0.6,0.3,0.8,0.8,0.8v0.1
		c-0.6,0-0.8,0.3-0.8,0.8c0,0.6,0.3,0.8,0.8,0.8c0.6,0,0.8-0.3,0.8-0.8H20c0,0.6,0.3,0.8,0.8,0.8c0.6,0,0.8-0.3,0.8-0.8h0.1
		c0,0.6,0.3,0.8,0.8,0.8c0.6,0,0.8-0.3,0.8-0.8h0.1c0,0.3,0.1,0.5,0.2,0.6c0.1,0.1,0.3,0.2,0.6,0.2c0.6,0,0.8-0.3,0.8-0.8h0.1
		c0,0.6,0.3,0.8,0.8,0.8c0.6,0,0.8-0.3,0.8-0.8C26.8,20,26.5,19.7,26,19.7 M41.6,18c-0.6,0-0.8,0.3-0.8,0.8c0,0.6,0.3,0.8,0.8,0.8
		c0.6,0,0.8-0.3,0.8-0.8C42.4,18.3,42.2,18,41.6,18 M36.5,11.2L36.5,11.2c-0.6,0-0.8,0.3-0.8,0.8v0c0,0.6,0.3,0.8,0.8,0.8
		s0.8-0.3,0.8-0.8v0C37.3,11.4,37.1,11.2,36.5,11.2 M34.8,11.2L34.8,11.2c-0.6,0-0.8,0.3-0.8,0.8c0,0.6,0.3,0.8,0.8,0.8
		c0.6,0,0.8-0.3,0.8-0.8l0,0l0,0C35.6,11.4,35.4,11.2,34.8,11.2 M33.1,4.3L33.1,4.3c-0.6,0-0.8,0.3-0.8,0.8c0,0.6,0.3,0.8,0.8,0.8h0
		c0.6,0,0.8-0.3,0.8-0.8S33.7,4.3,33.1,4.3 M34.8,4.3c-0.6,0-0.8,0.3-0.8,0.8C34,5.7,34.3,6,34.8,6c0.6,0,0.8-0.3,0.8-0.8v0
		C35.6,4.6,35.4,4.3,34.8,4.3 M36.5,4.3L36.5,4.3c-0.6,0-0.8,0.3-0.8,0.8l0,0l0,0C35.7,5.7,36,6,36.5,6s0.8-0.3,0.8-0.8v0
		C37.3,4.6,37.1,4.3,36.5,4.3 M38.2,4.3c-0.6,0-0.8,0.3-0.8,0.8v0c0,0.6,0.3,0.8,0.8,0.8C38.8,6,39,5.7,39,5.2
		C39,4.6,38.8,4.3,38.2,4.3 M36.5,9.5c-0.6,0-0.8,0.3-0.8,0.8c0,0.6,0.3,0.8,0.8,0.8h0c0.5,0,0.8-0.3,0.8-0.8v0
		C37.3,9.7,37.1,9.5,36.5,9.5 M34.8,11.1L34.8,11.1c0.6,0,0.8-0.3,0.8-0.8c0-0.6-0.3-0.8-0.8-0.8c-0.6,0-0.8,0.3-0.8,0.8h0
		C34,10.8,34.3,11.1,34.8,11.1 M33.1,12.9L33.1,12.9c-0.6,0-0.8,0.3-0.8,0.8c0,0.6,0.3,0.8,0.8,0.8c0.5,0,0.8-0.3,0.8-0.8v0l0,0
		C33.9,13.2,33.7,12.9,33.1,12.9 M33.1,16.2c0.5,0,0.8-0.3,0.8-0.8l0,0l0,0c0-0.5-0.3-0.8-0.8-0.8h0c-0.5,0-0.8,0.3-0.8,0.8
		C32.3,16,32.6,16.2,33.1,16.2 M33.1,16.3L33.1,16.3c-0.6,0-0.8,0.3-0.8,0.8c0,0.6,0.3,0.8,0.8,0.8h0c0.5,0,0.8-0.3,0.8-0.8l0,0l0,0
		C33.9,16.6,33.7,16.3,33.1,16.3 M33.1,18c-0.6,0-0.8,0.3-0.8,0.8c0,0.6,0.3,0.8,0.8,0.8h0c0.5,0,0.8-0.3,0.8-0.8l0,0l0,0
		C33.9,18.3,33.7,18,33.1,18 M33.1,11.2L33.1,11.2c-0.6,0-0.8,0.3-0.8,0.8c0,0.6,0.3,0.8,0.8,0.8c0.6,0,0.8-0.3,0.8-0.8
		C33.9,11.4,33.7,11.2,33.1,11.2 M33.1,6L33.1,6c-0.6,0-0.8,0.3-0.8,0.8c0,0.6,0.3,0.8,0.8,0.8c0.6,0,0.8-0.3,0.8-0.8l0,0l0,0
		C33.9,6.3,33.7,6,33.1,6 M34.8,6L34.8,6C34.3,6,34,6.3,34,6.9v0c0,0.6,0.3,0.8,0.8,0.8s0.8-0.3,0.8-0.8h0C35.6,6.3,35.4,6,34.8,6
		 M35.6,8.6c0-0.6-0.3-0.8-0.8-0.8h0C34.3,7.8,34,8,34,8.6c0,0.6,0.3,0.8,0.8,0.8C35.4,9.4,35.6,9.1,35.6,8.6 M32.3,8.6
		c0,0.6,0.3,0.8,0.8,0.8c0.6,0,0.8-0.3,0.8-0.8c0-0.6-0.3-0.8-0.8-0.8h0C32.6,7.8,32.3,8,32.3,8.6C32.3,8.6,32.3,8.6,32.3,8.6z
		 M32.3,10.3c0,0.6,0.3,0.8,0.8,0.8h0c0.5,0,0.8-0.3,0.8-0.8c0-0.6-0.3-0.8-0.8-0.8C32.6,9.5,32.3,9.7,32.3,10.3L32.3,10.3z M36.5,6
		L36.5,6c-0.6,0-0.8,0.3-0.8,0.8c0,0.6,0.3,0.8,0.8,0.8c0.6,0,0.8-0.3,0.8-0.8v0C37.3,6.3,37.1,6,36.5,6 M38.2,7.7
		c0.6,0,0.8-0.3,0.8-0.8C39,6.3,38.8,6,38.2,6c-0.6,0-0.8,0.3-0.8,0.8v0C37.4,7.4,37.7,7.7,38.2,7.7 M39.9,7.7
		c0.6,0,0.8-0.3,0.8-0.8v0c0-0.6-0.3-0.8-0.8-0.8c-0.6,0-0.8,0.3-0.8,0.8C39.1,7.4,39.4,7.7,39.9,7.7 M38.2,9.4L38.2,9.4
		c0.6,0,0.8-0.3,0.8-0.8c0-0.6-0.3-0.8-0.8-0.8h0c-0.5,0-0.8,0.3-0.8,0.8C37.4,9.1,37.7,9.4,38.2,9.4 M38.2,11.1L38.2,11.1
		c0.6,0,0.8-0.3,0.8-0.8s-0.3-0.8-0.8-0.8h0c-0.5,0-0.8,0.3-0.8,0.8l0,0v0C37.4,10.8,37.7,11.1,38.2,11.1 M39.9,9.4
		c0.6,0,0.8-0.3,0.8-0.8v0c0-0.6-0.3-0.8-0.8-0.8c-0.6,0-0.8,0.3-0.8,0.8C39.1,9.1,39.4,9.4,39.9,9.4 M38.2,11.2
		c-0.6,0-0.8,0.3-0.8,0.8v0c0,0.6,0.3,0.8,0.8,0.8c0.6,0,0.8-0.3,0.8-0.8v0C39,11.4,38.8,11.2,38.2,11.2 M39.9,14.6L39.9,14.6
		c-0.6,0-0.8,0.3-0.8,0.8v0c0,0.6,0.3,0.8,0.8,0.8c0.6,0,0.8-0.3,0.8-0.8C40.7,14.9,40.5,14.6,39.9,14.6 M39.9,19.7L39.9,19.7
		c0.6,0,0.8-0.3,0.8-0.8c0-0.6-0.3-0.8-0.8-0.8c-0.6,0-0.8,0.3-0.8,0.8v0C39.1,19.4,39.4,19.7,39.9,19.7 M39.9,16.3
		c-0.6,0-0.8,0.3-0.8,0.8l0,0l0,0c0,0.6,0.3,0.8,0.8,0.8c0.6,0,0.8-0.3,0.8-0.8C40.7,16.6,40.5,16.3,39.9,16.3 M41.6,16.3
		c-0.6,0-0.8,0.3-0.8,0.8c0,0.6,0.3,0.8,0.8,0.8c0.6,0,0.8-0.3,0.8-0.8C42.4,16.6,42.2,16.3,41.6,16.3 M41.6,14.6
		c-0.6,0-0.8,0.3-0.8,0.8c0,0.6,0.3,0.8,0.8,0.8c0.6,0,0.8-0.3,0.8-0.8C42.4,14.9,42.2,14.6,41.6,14.6 M41.6,12.9
		c-0.6,0-0.8,0.3-0.8,0.8c0,0.6,0.3,0.8,0.8,0.8c0.6,0,0.8-0.3,0.8-0.8C42.4,13.2,42.2,12.9,41.6,12.9 M39.9,12.9
		c-0.6,0-0.8,0.3-0.8,0.8l0,0l0,0c0,0.6,0.3,0.8,0.8,0.8h0c0.5,0,0.8-0.3,0.8-0.8C40.7,13.2,40.5,12.9,39.9,12.9 M39.9,11.2
		c-0.6,0-0.8,0.3-0.8,0.8l0,0l0,0c0,0.6,0.3,0.8,0.8,0.8c0.6,0,0.8-0.3,0.8-0.8S40.5,11.2,39.9,11.2 M39.9,11.1
		c0.6,0,0.8-0.3,0.8-0.8v0c0-0.6-0.3-0.8-0.8-0.8c-0.6,0-0.8,0.3-0.8,0.8C39.1,10.8,39.4,11.1,39.9,11.1 M41.6,11.1
		c0.6,0,0.8-0.3,0.8-0.8c0-0.6-0.3-0.8-0.8-0.8c-0.6,0-0.8,0.3-0.8,0.8v0C40.8,10.8,41.1,11.1,41.6,11.1 M41.6,9.4
		c0.6,0,0.8-0.3,0.8-0.8c0-0.6-0.3-0.8-0.8-0.8c-0.6,0-0.8,0.3-0.8,0.8v0C40.8,9.1,41.1,9.4,41.6,9.4 M41.6,7.7
		c0.6,0,0.8-0.3,0.8-0.8c0-0.6-0.3-0.8-0.8-0.8c-0.6,0-0.8,0.3-0.8,0.8v0C40.8,7.4,41.1,7.7,41.6,7.7 M41.6,6c0.6,0,0.8-0.3,0.8-0.8
		c0-0.6-0.3-0.8-0.8-0.8c-0.5,0-0.8,0.3-0.8,0.8l0,0l0,0C40.8,5.7,41.1,6,41.6,6 M39.9,4.3c-0.6,0-0.8,0.3-0.8,0.8
		c0,0.6,0.3,0.8,0.8,0.8c0.5,0,0.8-0.3,0.8-0.8v0C40.7,4.6,40.5,4.3,39.9,4.3 M39.9,4.3c0.6,0,0.8-0.3,0.8-0.8s-0.3-0.8-0.8-0.8
		c-0.6,0-0.8,0.3-0.8,0.8h0C39.1,4,39.4,4.3,39.9,4.3 M38.2,4.3C38.8,4.3,39,4,39,3.5s-0.3-0.8-0.8-0.8c-0.6,0-0.8,0.3-0.8,0.8h0
		C37.4,4,37.7,4.3,38.2,4.3 M36.5,4.3c0.6,0,0.8-0.3,0.8-0.8h0c0-0.6-0.3-0.8-0.8-0.8c-0.6,0-0.8,0.3-0.8,0.8h0
		C35.7,4,36,4.3,36.5,4.3 M34.8,4.3c0.6,0,0.8-0.3,0.8-0.8s-0.3-0.8-0.8-0.8c-0.6,0-0.8,0.3-0.8,0.8h0C34,4,34.3,4.3,34.8,4.3
		 M33.1,4.3c0.6,0,0.8-0.3,0.8-0.8h0c0-0.6-0.3-0.8-0.8-0.8c-0.6,0-0.8,0.3-0.8,0.8h0C32.3,4,32.6,4.3,33.1,4.3"/>
	<path class="st0" d="M34.8,19.7c-0.6,0-0.8,0.3-0.8,0.8h-0.1c0-0.6-0.3-0.8-0.8-0.8c-0.6,0-0.8,0.3-0.8,0.8h-0.1
		c0-0.6-0.3-0.8-0.8-0.8v-0.1c0.6,0,0.8-0.3,0.8-0.8S32,18,31.4,18V18c0.6,0,0.8-0.3,0.8-0.8c0-0.6-0.3-0.8-0.8-0.8v-0.1
		c0.6,0,0.8-0.3,0.8-0.8c0-0.6-0.3-0.8-0.8-0.8v-0.1c0.6,0,0.8-0.3,0.8-0.8s-0.3-0.8-0.8-0.8v-0.1c0.6,0,0.8-0.3,0.8-0.8
		s-0.3-0.8-0.8-0.8v-0.1c0.6,0,0.8-0.3,0.8-0.8S32,9.5,31.4,9.5V9.4c0.6,0,0.8-0.3,0.8-0.8c0-0.6-0.3-0.8-0.8-0.8V7.7
		c0.6,0,0.8-0.3,0.8-0.8C32.2,6.3,32,6,31.4,6V6c0.6,0,0.8-0.3,0.8-0.8c0-0.6-0.3-0.8-0.8-0.8V4.3c0.6,0,0.8-0.3,0.8-0.8h0
		c0-0.6-0.3-0.8-0.8-0.8c-0.6,0-0.8,0.3-0.8,0.8c0,0.6,0.3,0.8,0.8,0.8v0.1c-0.6,0-0.8,0.3-0.8,0.8c0,0.6,0.3,0.8,0.8,0.8V6
		c-0.6,0-0.8,0.3-0.8,0.8c0,0.6,0.3,0.8,0.8,0.8v0.1c-0.6,0-0.8,0.3-0.8,0.8c0,0.6,0.3,0.8,0.8,0.8v0.1c-0.6,0-0.8,0.3-0.8,0.8
		s0.3,0.8,0.8,0.8v0.1c-0.6,0-0.8,0.3-0.8,0.8s0.3,0.8,0.8,0.8v0.1c-0.6,0-0.8,0.3-0.8,0.8c0,0.6,0.3,0.8,0.8,0.8v0.1
		c-0.6,0-0.8,0.3-0.8,0.8c0,0.6,0.3,0.8,0.8,0.8v0.1c-0.6,0-0.8,0.3-0.8,0.8c0,0.6,0.3,0.8,0.8,0.8V18c-0.6,0-0.8,0.3-0.8,0.8
		c0,0.6,0.3,0.8,0.8,0.8v0.1c-0.6,0-0.8,0.3-0.8,0.8c0,0.6,0.3,0.8,0.8,0.8c0.6,0,0.8-0.3,0.8-0.8h0.1c0,0.6,0.3,0.8,0.8,0.8
		c0.6,0,0.8-0.3,0.8-0.8H34c0,0.6,0.3,0.8,0.8,0.8c0.6,0,0.8-0.3,0.8-0.8C35.6,20,35.4,19.7,34.8,19.7"/>
	<path class="st0" d="M34.8,18c-0.5,0-0.8,0.3-0.8,0.8v0c0,0.6,0.3,0.8,0.8,0.8c0.6,0,0.8-0.3,0.8-0.8S35.4,18,34.8,18 M34.8,16.3
		c-0.5,0-0.8,0.3-0.8,0.8v0c0,0.5,0.3,0.8,0.8,0.8v0c0.6,0,0.8-0.3,0.8-0.8C35.6,16.6,35.4,16.3,34.8,16.3 M34.8,14.6
		c-0.5,0-0.8,0.3-0.8,0.8v0c0,0.6,0.3,0.8,0.8,0.8c0.6,0,0.8-0.3,0.8-0.8C35.6,14.9,35.4,14.6,34.8,14.6 M34.8,12.9
		c-0.6,0-0.8,0.3-0.8,0.8v0c0,0.6,0.3,0.8,0.8,0.8c0.6,0,0.8-0.3,0.8-0.8S35.4,12.9,34.8,12.9 M36.5,12.9c-0.6,0-0.8,0.3-0.8,0.8h0
		c0,0.6,0.3,0.8,0.8,0.8c0.6,0,0.8-0.3,0.8-0.8h0C37.3,13.2,37.1,12.9,36.5,12.9 M41.6,19.7c-0.6,0-0.8,0.3-0.8,0.8h-0.1
		c0-0.6-0.3-0.8-0.8-0.8c-0.6,0-0.8,0.3-0.8,0.8H39c0-0.6-0.3-0.8-0.8-0.8v-0.1c0.6,0,0.8-0.3,0.8-0.8v0c0-0.6-0.3-0.8-0.8-0.8V18
		c0.6,0,0.8-0.3,0.8-0.8v0c0-0.6-0.3-0.8-0.8-0.8v-0.1c0.6,0,0.8-0.3,0.8-0.8v0c0-0.6-0.3-0.8-0.8-0.8v-0.1c0.6,0,0.8-0.3,0.8-0.8v0
		c0-0.6-0.3-0.8-0.8-0.8c-0.6,0-0.8,0.3-0.8,0.8s0.3,0.8,0.8,0.8v0.1c-0.6,0-0.8,0.3-0.8,0.8c0,0.6,0.3,0.8,0.8,0.8v0.1
		c-0.6,0-0.8,0.3-0.8,0.8c0,0.6,0.3,0.8,0.8,0.8V18c-0.6,0-0.8,0.3-0.8,0.8c0,0.6,0.3,0.8,0.8,0.8v0.1c-0.6,0-0.8,0.3-0.8,0.8
		c0,0.6,0.3,0.8,0.8,0.8c0.6,0,0.8-0.3,0.8-0.8h0.1c0,0.6,0.3,0.8,0.8,0.8c0.6,0,0.8-0.3,0.8-0.8h0.1c0,0.6,0.3,0.8,0.8,0.8
		c0.6,0,0.8-0.3,0.8-0.8C42.4,20,42.2,19.7,41.6,19.7 M55.6,18c-0.6,0-0.8,0.3-0.8,0.8h-0.1c0-0.6-0.3-0.8-0.8-0.8s-0.8,0.3-0.8,0.8
		c0,0.6,0.3,0.8,0.8,0.8s0.8-0.3,0.8-0.8h0.1c0,0.6,0.3,0.8,0.8,0.8c0.6,0,0.8-0.3,0.8-0.8C56.4,18.3,56.1,18,55.6,18 M48.8,4.3
		c-0.6,0-0.8,0.3-0.8,0.8C48,5.7,48.2,6,48.8,6h0c0.5,0,0.8-0.3,0.8-0.8v0C49.6,4.6,49.3,4.3,48.8,4.3 M50.5,6
		c0.6,0,0.8-0.3,0.8-0.8l0,0l0,0c0-0.5-0.3-0.8-0.8-0.8h0c-0.5,0-0.8,0.3-0.8,0.8v0C49.7,5.7,49.9,6,50.5,6 M52.2,6
		C52.7,6,53,5.7,53,5.2c0-0.6-0.3-0.8-0.8-0.8h0c-0.5,0-0.8,0.3-0.8,0.8v0C51.4,5.7,51.6,6,52.2,6 M52.2,19.7c0.6,0,0.8-0.3,0.8-0.8
		S52.7,18,52.2,18c-0.6,0-0.8,0.3-0.8,0.8l0,0l0,0C51.4,19.4,51.6,19.7,52.2,19.7 M50.5,18c-0.6,0-0.8,0.3-0.8,0.8
		c0,0.6,0.3,0.8,0.8,0.8c0.6,0,0.8-0.3,0.8-0.8l0,0l0,0C51.3,18.3,51,18,50.5,18 M48.8,18c-0.6,0-0.8,0.3-0.8,0.8
		c0,0.6,0.3,0.8,0.8,0.8h0c0.5,0,0.8-0.3,0.8-0.8C49.6,18.3,49.3,18,48.8,18 M47.1,16.3c-0.6,0-0.8,0.3-0.8,0.8
		c0,0.6,0.3,0.8,0.8,0.8c0.6,0,0.8-0.3,0.8-0.8v0C47.9,16.6,47.6,16.3,47.1,16.3 M48.8,7.7c0.6,0,0.8-0.3,0.8-0.8
		c0-0.6-0.3-0.8-0.8-0.8h0C48.2,6,48,6.3,48,6.9v0C48,7.4,48.2,7.7,48.8,7.7 M50.5,7.7c0.6,0,0.8-0.3,0.8-0.8l0,0l0,0
		C51.3,6.3,51,6,50.5,6h0c-0.5,0-0.8,0.3-0.8,0.8C49.7,7.4,49.9,7.7,50.5,7.7 M52.2,7.7c0.6,0,0.8-0.3,0.8-0.8C53,6.3,52.7,6,52.2,6
		h0c-0.5,0-0.8,0.3-0.8,0.8v0C51.4,7.4,51.6,7.7,52.2,7.7 M53.9,18c0.6,0,0.8-0.3,0.8-0.8c0-0.6-0.3-0.8-0.8-0.8
		c-0.6,0-0.8,0.3-0.8,0.8l0,0l0,0C53.1,17.7,53.3,18,53.9,18 M52.2,16.3c-0.6,0-0.8,0.3-0.8,0.8v0c0,0.6,0.3,0.8,0.8,0.8h0
		c0.5,0,0.8-0.3,0.8-0.8l0,0l0,0C53,16.6,52.7,16.3,52.2,16.3 M50.5,18L50.5,18c0.6,0,0.8-0.3,0.8-0.8v0c0-0.5-0.3-0.8-0.8-0.8
		c-0.6,0-0.8,0.3-0.8,0.8C49.7,17.7,49.9,18,50.5,18 M52.2,9.4c0.6,0,0.8-0.3,0.8-0.8c0-0.6-0.3-0.8-0.8-0.8S51.4,8,51.4,8.6
		C51.4,9.1,51.6,9.4,52.2,9.4 M53,10.3c0-0.6-0.3-0.8-0.8-0.8l0,0h0c-0.5,0-0.8,0.3-0.8,0.8c0,0.6,0.3,0.8,0.8,0.8S53,10.8,53,10.3z
		 M52.2,11.2c-0.6,0-0.8,0.3-0.8,0.8c0,0.6,0.3,0.8,0.8,0.8c0.6,0,0.8-0.3,0.8-0.8v0C53,11.4,52.7,11.2,52.2,11.2 M52.2,12.9
		c-0.6,0-0.8,0.3-0.8,0.8c0,0.6,0.3,0.8,0.8,0.8c0.6,0,0.8-0.3,0.8-0.8v0C53,13.2,52.7,12.9,52.2,12.9 M52.2,14.6
		c-0.6,0-0.8,0.3-0.8,0.8c0,0.6,0.3,0.8,0.8,0.8v0c0.6,0,0.8-0.3,0.8-0.8v0C53,14.9,52.7,14.6,52.2,14.6 M53.9,14.6
		c-0.6,0-0.8,0.3-0.8,0.8v0c0,0.6,0.3,0.8,0.8,0.8c0.6,0,0.8-0.3,0.8-0.8C54.7,14.9,54.4,14.6,53.9,14.6 M53.9,12.9
		c-0.6,0-0.8,0.3-0.8,0.8v0c0,0.6,0.3,0.8,0.8,0.8c0.6,0,0.8-0.3,0.8-0.8C54.7,13.2,54.4,12.9,53.9,12.9 M53.9,11.2
		c-0.6,0-0.8,0.3-0.8,0.8v0c0,0.6,0.3,0.8,0.8,0.8c0.6,0,0.8-0.3,0.8-0.8C54.7,11.4,54.4,11.2,53.9,11.2 M54.7,10.3
		c0-0.6-0.3-0.8-0.8-0.8c-0.6,0-0.8,0.3-0.8,0.8h0c0,0.6,0.3,0.8,0.8,0.8h0C54.4,11.1,54.7,10.8,54.7,10.3z M53.9,9.4L53.9,9.4
		c0.6,0,0.8-0.3,0.8-0.8c0-0.6-0.3-0.8-0.8-0.8h0c-0.5,0-0.8,0.3-0.8,0.8C53.1,9.1,53.3,9.4,53.9,9.4 M49.6,15.4
		c0-0.6-0.3-0.8-0.8-0.8c-0.6,0-0.8,0.3-0.8,0.8v0c0,0.6,0.3,0.8,0.8,0.8v0C49.3,16.2,49.6,16,49.6,15.4 M48.8,9.4L48.8,9.4
		c0.6,0,0.8-0.3,0.8-0.8c0-0.6-0.3-0.8-0.8-0.8h0C48.2,7.8,48,8,48,8.6C48,9.1,48.2,9.4,48.8,9.4 M48.8,12.9c-0.6,0-0.8,0.3-0.8,0.8
		v0c0,0.6,0.3,0.8,0.8,0.8c0.6,0,0.8-0.3,0.8-0.8C49.6,13.2,49.3,12.9,48.8,12.9 M48.8,11.2c-0.6,0-0.8,0.3-0.8,0.8v0
		c0,0.6,0.3,0.8,0.8,0.8c0.6,0,0.8-0.3,0.8-0.8S49.3,11.2,48.8,11.2 M48.8,11.1c0.6,0,0.8-0.3,0.8-0.8s-0.3-0.8-0.8-0.8
		c-0.6,0-0.8,0.3-0.8,0.8S48.2,11.1,48.8,11.1 M47.1,7.8c-0.6,0-0.8,0.3-0.8,0.8s0.3,0.8,0.8,0.8h0c0.6,0,0.8-0.3,0.8-0.8h0
		C47.9,8,47.6,7.8,47.1,7.8 M47.1,11.1L47.1,11.1c0.6,0,0.8-0.3,0.8-0.8c0-0.6-0.3-0.8-0.8-0.8c-0.6,0-0.8,0.3-0.8,0.8
		C46.3,10.8,46.5,11.1,47.1,11.1 M47.1,11.2L47.1,11.2c-0.6,0-0.8,0.3-0.8,0.8c0,0.6,0.3,0.8,0.8,0.8c0.6,0,0.8-0.3,0.8-0.8v0
		C47.9,11.4,47.6,11.2,47.1,11.2 M47.1,12.9c-0.6,0-0.8,0.3-0.8,0.8c0,0.6,0.3,0.8,0.8,0.8c0.6,0,0.8-0.3,0.8-0.8v0
		C47.9,13.2,47.6,12.9,47.1,12.9 M47.1,14.6c-0.6,0-0.8,0.3-0.8,0.8c0,0.6,0.3,0.8,0.8,0.8c0.6,0,0.8-0.3,0.8-0.8v0
		C47.9,14.9,47.6,14.6,47.1,14.6 M48.8,16.3L48.8,16.3c-0.6,0-0.8,0.3-0.8,0.8v0c0,0.6,0.3,0.8,0.8,0.8h0c0.5,0,0.8-0.3,0.8-0.8
		C49.6,16.6,49.3,16.3,48.8,16.3 M53.9,6L53.9,6c-0.6,0-0.8,0.3-0.8,0.8c0,0.6,0.3,0.8,0.8,0.8c0.6,0,0.8-0.3,0.8-0.8l0,0l0,0
		C54.7,6.3,54.4,6,53.9,6 M47.1,6c-0.6,0-0.8,0.3-0.8,0.8c0,0.6,0.3,0.8,0.8,0.8c0.6,0,0.8-0.3,0.8-0.8v0C47.9,6.3,47.6,6,47.1,6
		 M55.6,16.3L55.6,16.3c-0.6,0-0.8,0.3-0.8,0.8c0,0.6,0.3,0.8,0.8,0.8v0c0.6,0,0.8-0.3,0.8-0.8C56.4,16.6,56.1,16.3,55.6,16.3
		 M55.6,14.6c-0.6,0-0.8,0.3-0.8,0.8c0,0.6,0.3,0.8,0.8,0.8v0c0.6,0,0.8-0.3,0.8-0.8C56.4,14.9,56.1,14.6,55.6,14.6 M55.6,14.5
		c0.6,0,0.8-0.3,0.8-0.8c0-0.6-0.3-0.8-0.8-0.8s-0.8,0.3-0.8,0.8C54.8,14.3,55,14.5,55.6,14.5 M54.8,12c0,0.6,0.3,0.8,0.8,0.8
		c0.6,0,0.8-0.3,0.8-0.8s-0.3-0.8-0.8-0.8C55,11.2,54.8,11.4,54.8,12 M55.6,9.5c-0.6,0-0.8,0.3-0.8,0.8c0,0.6,0.3,0.8,0.8,0.8
		s0.8-0.3,0.8-0.8C56.4,9.7,56.1,9.5,55.6,9.5 M55.6,9.4c0.6,0,0.8-0.3,0.8-0.8c0-0.6-0.3-0.8-0.8-0.8S54.8,8,54.8,8.6
		c0,0.3,0.1,0.5,0.2,0.6C55.1,9.3,55.3,9.4,55.6,9.4 M55.6,7.7c0.6,0,0.8-0.3,0.8-0.8c0-0.6-0.3-0.8-0.8-0.8c-0.6,0-0.8,0.3-0.8,0.8
		v0C54.8,7.4,55,7.7,55.6,7.7 M55.6,6c0.6,0,0.8-0.3,0.8-0.8c0-0.6-0.3-0.8-0.8-0.8s-0.8,0.3-0.8,0.8C54.8,5.7,55,6,55.6,6
		 M53.9,4.3c-0.6,0-0.8,0.3-0.8,0.8c0,0.6,0.3,0.8,0.8,0.8s0.8-0.3,0.8-0.8C54.7,4.6,54.4,4.3,53.9,4.3 M53.9,4.3
		c0.6,0,0.8-0.3,0.8-0.8c0-0.6-0.3-0.8-0.8-0.8s-0.8,0.3-0.8,0.8C53.1,4,53.3,4.3,53.9,4.3 M52.2,4.3C52.7,4.3,53,4,53,3.5h0
		c0-0.6-0.3-0.8-0.8-0.8s-0.8,0.3-0.8,0.8C51.4,4,51.6,4.3,52.2,4.3 M50.5,4.3c0.6,0,0.8-0.3,0.8-0.8h0c0-0.6-0.3-0.8-0.8-0.8
		s-0.8,0.3-0.8,0.8h0C49.7,4,49.9,4.3,50.5,4.3 M48.8,4.3c0.6,0,0.8-0.3,0.8-0.8h0c0-0.6-0.3-0.8-0.8-0.8c-0.6,0-0.8,0.3-0.8,0.8h0
		C48,4,48.2,4.3,48.8,4.3 M47.1,4.3L47.1,4.3c-0.6,0.1-0.8,0.3-0.8,0.9h0c0,0.6,0.3,0.8,0.8,0.8c0.6,0,0.8-0.3,0.8-0.8
		C47.9,4.6,47.6,4.3,47.1,4.3L47.1,4.3c0.6,0,0.8-0.3,0.8-0.8h0c0-0.6-0.3-0.8-0.8-0.8c-0.6,0-0.8,0.3-0.8,0.8
		C46.3,4,46.5,4.3,47.1,4.3"/>
	<path class="st0" d="M53.9,19.7c-0.6,0-0.8,0.3-0.8,0.8H53c0-0.6-0.3-0.8-0.8-0.8s-0.8,0.3-0.8,0.8h-0.1c0-0.6-0.3-0.8-0.8-0.8
		s-0.8,0.3-0.8,0.8h-0.1c0-0.6-0.3-0.8-0.8-0.8c-0.6,0-0.8,0.3-0.8,0.8h-0.1c0-0.6-0.3-0.8-0.8-0.8v-0.1c0.6,0,0.8-0.3,0.8-0.8
		c0-0.6-0.3-0.8-0.8-0.8c-0.6,0-0.8,0.3-0.8,0.8h-0.1c0-0.6-0.3-0.8-0.8-0.8V18c0.6,0,0.8-0.3,0.8-0.8c0-0.6-0.3-0.8-0.8-0.8v-0.1
		c0.6,0,0.8-0.3,0.8-0.8c0-0.6-0.3-0.8-0.8-0.8v-0.1c0.6,0,0.8-0.3,0.8-0.8c0-0.6-0.3-0.8-0.8-0.8v-0.1c0.6,0,0.8-0.3,0.8-0.8
		c0-0.6-0.3-0.8-0.8-0.8v-0.1c0.6,0,0.8-0.3,0.8-0.8c0-0.6-0.3-0.8-0.8-0.8V9.4c0.6,0,0.8-0.3,0.8-0.8c0-0.6-0.3-0.8-0.8-0.8V7.7
		c0.6,0,0.8-0.3,0.8-0.8c0-0.6-0.3-0.8-0.8-0.8V6c0.6,0,0.8-0.3,0.8-0.8h0c0-0.6-0.3-0.8-0.8-0.8c-0.6,0-0.8,0.3-0.8,0.8
		S44.8,6,45.4,6V6c-0.6,0-0.8,0.3-0.8,0.8c0,0.6,0.3,0.8,0.8,0.8v0.1c-0.6,0-0.8,0.3-0.8,0.8c0,0.6,0.3,0.8,0.8,0.8v0.1
		c-0.6,0-0.8,0.3-0.8,0.8c0,0.6,0.3,0.8,0.8,0.8v0.1c-0.6,0-0.8,0.3-0.8,0.8c0,0.6,0.3,0.8,0.8,0.8v0.1c-0.6,0-0.8,0.3-0.8,0.8
		c0,0.6,0.3,0.8,0.8,0.8v0.1c-0.6,0-0.8,0.3-0.8,0.8c0,0.6,0.3,0.8,0.8,0.8v0.1c-0.6,0-0.8,0.3-0.8,0.8c0,0.6,0.3,0.8,0.8,0.8V18
		c-0.6,0-0.8,0.3-0.8,0.8c0,0.6,0.3,0.8,0.8,0.8c0.6,0,0.8-0.3,0.8-0.8h0.1c0,0.6,0.3,0.8,0.8,0.8v0.1c-0.6,0-0.8,0.3-0.8,0.8
		s0.3,0.8,0.8,0.8c0.6,0,0.8-0.3,0.8-0.8H48c0,0.6,0.3,0.8,0.8,0.8c0.6,0,0.8-0.3,0.8-0.8h0.1c0,0.6,0.3,0.8,0.8,0.8
		s0.8-0.3,0.8-0.8h0.1c0,0.6,0.3,0.8,0.8,0.8c0.6,0,0.8-0.3,0.8-0.8h0.1c0,0.6,0.3,0.8,0.8,0.8s0.8-0.3,0.8-0.8
		C54.7,20,54.4,19.7,53.9,19.7 M68.9,7.7L68.9,7.7L68.9,7.7c0.6,0,0.8-0.3,0.8-0.8c0-0.6-0.3-0.8-0.8-0.8c-0.6,0-0.8,0.3-0.8,0.8v0
		C68.1,7.4,68.4,7.7,68.9,7.7 M60.4,16.3L60.4,16.3L60.4,16.3c-0.6,0-0.9,0.3-0.9,0.8v0c0,0.6,0.3,0.8,0.8,0.8
		c0.5,0,0.8-0.3,0.8-0.8l0,0l0,0C61.2,16.6,61,16.3,60.4,16.3 M62.1,18L62.1,18c-0.6,0-0.9,0.3-0.9,0.8v0c0,0.6,0.3,0.8,0.8,0.8
		c0.6,0,0.8-0.3,0.8-0.8v0C62.9,18.3,62.7,18,62.1,18 M63,18.8c0,0.6,0.3,0.8,0.8,0.8c0.6,0,0.8-0.3,0.8-0.8v0
		c0-0.5-0.3-0.8-0.8-0.8h-0.1C63.2,18,63,18.3,63,18.8C63,18.8,63,18.8,63,18.8z M64.7,18.8c0,0.6,0.3,0.8,0.8,0.8
		c0.6,0,0.8-0.3,0.8-0.8v0c0-0.5-0.3-0.8-0.8-0.8h-0.1C64.9,18,64.7,18.3,64.7,18.8C64.7,18.8,64.7,18.8,64.7,18.8z M67.2,4.3
		L67.2,4.3c-0.6,0-0.8,0.3-0.8,0.8c0,0.6,0.3,0.8,0.8,0.8h0C67.8,6,68,5.7,68,5.2v0C68,4.6,67.8,4.3,67.2,4.3 M67.2,6L67.2,6
		c-0.6,0-0.8,0.3-0.8,0.8c0,0.6,0.3,0.8,0.8,0.8S68,7.4,68,6.9v0C68,6.3,67.8,6,67.2,6 M67.2,9.4c0.6,0,0.8-0.3,0.8-0.8v0
		c0-0.6-0.3-0.8-0.8-0.8c-0.6,0-0.8,0.3-0.8,0.8C66.4,9.1,66.7,9.4,67.2,9.4 M67.2,11.1c0.6,0,0.8-0.3,0.8-0.8v0
		c0-0.6-0.3-0.8-0.8-0.8c-0.6,0-0.8,0.3-0.8,0.8C66.4,10.8,66.7,11.1,67.2,11.1 M67.2,11.2c-0.6,0-0.8,0.3-0.8,0.8s0.3,0.8,0.8,0.8
		S68,12.6,68,12v0l0,0C68,11.4,67.8,11.2,67.2,11.2 M67.2,12.9c-0.6,0-0.8,0.3-0.8,0.8c0,0.6,0.3,0.8,0.8,0.8s0.8-0.3,0.8-0.8v0l0,0
		C68,13.2,67.8,12.9,67.2,12.9 M67.2,16.2c0.6,0,0.8-0.3,0.8-0.8v0c0-0.6-0.3-0.8-0.8-0.8c-0.6,0-0.8,0.3-0.8,0.8
		S66.7,16.2,67.2,16.2 M67.2,18c0.6,0,0.8-0.3,0.8-0.8v0c0-0.6-0.3-0.8-0.8-0.8c-0.6,0-0.8,0.3-0.8,0.8S66.7,18,67.2,18 M68.9,4.3
		c-0.6,0-0.8,0.3-0.8,0.8v0c0,0.6,0.3,0.8,0.8,0.8s0.8-0.3,0.8-0.8C69.7,4.6,69.5,4.3,68.9,4.3"/>
	<path class="st0" d="M64.7,13.7c0,0.6,0.3,0.8,0.8,0.8v0.1c-0.6,0-0.8,0.3-0.8,0.8c0,0.6,0.3,0.8,0.8,0.8v0.1
		c-0.6,0-0.8,0.3-0.8,0.8c0,0.5,0.3,0.8,0.8,0.8l0,0l0,0c0.5,0,0.8-0.3,0.8-0.8c0-0.6-0.3-0.8-0.8-0.8v-0.1c0.6,0,0.8-0.3,0.8-0.8
		c0-0.6-0.3-0.8-0.8-0.8v-0.1c0.6,0,0.8-0.3,0.8-0.8s-0.3-0.8-0.8-0.8v-0.1c0.6,0,0.8-0.3,0.8-0.8c0-0.6-0.3-0.8-0.8-0.8v-0.1
		c0.6,0,0.8-0.3,0.8-0.8c0-0.6-0.3-0.8-0.8-0.8V9.4c0.6,0,0.8-0.3,0.8-0.8s-0.3-0.8-0.8-0.8V7.7c0.6,0,0.8-0.3,0.8-0.8
		c0-0.6-0.3-0.8-0.8-0.8V6c0.6,0,0.8-0.3,0.8-0.8c0-0.6-0.3-0.8-0.8-0.8V4.3c0.6,0,0.8-0.3,0.8-0.8h0.1c0,0.6,0.3,0.8,0.8,0.8h0
		C67.8,4.3,68,4,68,3.5h0.1c0,0.6,0.3,0.8,0.8,0.8c0.6,0,0.8-0.3,0.8-0.8c0-0.6-0.3-0.8-0.8-0.8c-0.6,0-0.8,0.3-0.8,0.8H68
		c0-0.6-0.3-0.8-0.8-0.8c-0.6,0-0.8,0.3-0.8,0.8h-0.1c0-0.6-0.3-0.8-0.8-0.8c-0.6,0-0.8,0.3-0.8,0.8c0,0.6,0.3,0.8,0.8,0.8v0.1
		c-0.6,0-0.8,0.3-0.8,0.8C64.7,5.7,65,6,65.5,6V6c-0.6,0-0.8,0.3-0.8,0.8s0.3,0.8,0.8,0.8v0.1c-0.6,0-0.8,0.3-0.8,0.8
		s0.3,0.8,0.8,0.8v0.1c-0.6,0-0.8,0.3-0.8,0.8s0.3,0.8,0.8,0.8v0.1c-0.6,0-0.8,0.3-0.8,0.8c0,0.6,0.3,0.8,0.8,0.8v0.1
		C65,12.9,64.7,13.2,64.7,13.7 M63.8,18L63.8,18C63.8,18,63.8,18,63.8,18c0.6,0,0.9-0.3,0.9-0.8c0-0.6-0.3-0.8-0.8-0.8
		c-0.6,0-0.8,0.3-0.8,0.8C63,17.7,63.2,17.9,63.8,18 M62.1,16.3L62.1,16.3c-0.5,0-0.8,0.3-0.8,0.8v0c0,0.5,0.3,0.8,0.8,0.8l0,0l0,0
		c0.5,0,0.8-0.3,0.8-0.8h0C62.9,16.6,62.7,16.3,62.1,16.3 M62.1,16.2L62.1,16.2c0.6,0,0.8-0.3,0.8-0.8c0-0.6-0.3-0.8-0.8-0.8
		s-0.8,0.3-0.8,0.8S61.6,16.2,62.1,16.2 M60.4,16.2L60.4,16.2L60.4,16.2c0.6,0,0.8-0.3,0.8-0.8c0-0.6-0.3-0.8-0.8-0.8
		s-0.8,0.3-0.8,0.8h0C59.6,16,59.9,16.2,60.4,16.2"/>
	<path class="st0" d="M67.2,19.7L67.2,19.7c-0.6,0-0.8,0.3-0.8,0.8h-0.1c0-0.6-0.3-0.8-0.8-0.8c-0.6,0-0.8,0.3-0.8,0.8h-0.1
		c0-0.6-0.3-0.8-0.8-0.8c-0.6,0-0.8,0.3-0.8,0.8h-0.1c0-0.6-0.3-0.8-0.8-0.8c-0.6,0-0.8,0.3-0.8,0.8h-0.1c0-0.6-0.3-0.8-0.8-0.8
		v-0.1c0.6,0,0.8-0.3,0.8-0.8S61,18,60.4,18c-0.6,0-0.8,0.3-0.8,0.8h-0.1c0-0.6-0.3-0.8-0.8-0.8V18c0.6,0,0.8-0.3,0.8-0.8
		s-0.3-0.8-0.8-0.8v-0.1c0.6,0,0.8-0.3,0.8-0.8h0c0-0.6-0.3-0.8-0.8-0.8s-0.8,0.3-0.8,0.8s0.3,0.8,0.8,0.8v0.1
		c-0.6,0-0.8,0.3-0.8,0.8c0,0.6,0.3,0.8,0.8,0.8V18c-0.6,0-0.8,0.3-0.8,0.8c0,0.6,0.3,0.8,0.8,0.8s0.8-0.3,0.8-0.8h0.1
		c0,0.6,0.3,0.8,0.8,0.8v0.1c-0.6,0-0.8,0.3-0.8,0.8c0,0.6,0.3,0.8,0.8,0.8s0.8-0.3,0.8-0.8h0.1c0,0.6,0.3,0.8,0.8,0.8
		s0.8-0.3,0.8-0.8H63c0,0.6,0.3,0.8,0.8,0.8c0.6,0,0.8-0.3,0.8-0.8h0.1c0,0.6,0.3,0.8,0.8,0.8c0.6,0,0.8-0.3,0.8-0.8h0.1
		c0,0.6,0.3,0.8,0.8,0.8c0.6,0,0.8-0.3,0.8-0.8C68,20,67.8,19.7,67.2,19.7"/>
	<path class="st0" d="M68.9,18L68.9,18c-0.6,0-0.8,0.3-0.8,0.8H68c0-0.6-0.3-0.8-0.8-0.8c-0.6,0-0.8,0.3-0.8,0.8v0
		c0,0.6,0.3,0.8,0.8,0.8v0c0.6,0,0.8-0.3,0.8-0.8h0.1c0,0.6,0.3,0.8,0.8,0.8c0.6,0,0.8-0.3,0.8-0.8C69.7,18.3,69.5,18,68.9,18
		 M69.7,17.1c0-0.6-0.3-0.8-0.8-0.8v0c-0.6,0-0.8,0.3-0.8,0.8v0c0,0.6,0.3,0.8,0.8,0.8v0C69.5,18,69.7,17.7,69.7,17.1 M68.1,15.4
		c0,0.6,0.3,0.8,0.8,0.8v0c0.6,0,0.8-0.3,0.8-0.8s-0.3-0.8-0.8-0.8S68.1,14.9,68.1,15.4C68.1,15.4,68.1,15.4,68.1,15.4z M68.9,12.9
		L68.9,12.9c-0.6,0-0.8,0.3-0.8,0.8v0c0,0.6,0.3,0.8,0.8,0.8v0c0.6,0,0.8-0.3,0.8-0.8C69.7,13.2,69.5,12.9,68.9,12.9 M68.9,11.2
		L68.9,11.2c-0.6,0-0.8,0.3-0.8,0.8v0c0,0.6,0.3,0.8,0.8,0.8v0c0.6,0,0.8-0.3,0.8-0.8C69.7,11.4,69.5,11.2,68.9,11.2 M68.9,9.5
		c-0.6,0-0.8,0.3-0.8,0.8v0c0,0.6,0.3,0.8,0.8,0.8s0.8-0.3,0.8-0.8C69.7,9.7,69.5,9.5,68.9,9.5 M68.9,7.8L68.9,7.8
		c-0.6,0-0.8,0.3-0.8,0.8c0,0.6,0.3,0.8,0.8,0.8c0.6,0,0.8-0.3,0.8-0.8C69.7,8,69.5,7.8,68.9,7.8 M82.9,7.7L82.9,7.7L82.9,7.7
		c0.6,0,0.8-0.3,0.8-0.8c0-0.6-0.3-0.8-0.8-0.8c-0.6,0-0.8,0.3-0.8,0.8v0C82.1,7.4,82.3,7.7,82.9,7.7 M76.1,7.8
		c-0.3,0-0.5,0.1-0.6,0.2c-0.1,0.1-0.2,0.3-0.2,0.6c0,0.6,0.3,0.8,0.8,0.8c0.6,0,0.8-0.3,0.8-0.8C76.9,8,76.6,7.8,76.1,7.8
		 M74.4,11.2c-0.6,0-0.8,0.3-0.8,0.8v0c0,0.6,0.3,0.8,0.8,0.8c0.6,0,0.8-0.3,0.8-0.8l0,0l0,0C75.2,11.4,74.9,11.2,74.4,11.2
		 M74.4,12.9c-0.6,0-0.8,0.3-0.8,0.8v0c0,0.6,0.3,0.8,0.8,0.8c0.6,0,0.8-0.3,0.8-0.8l0,0l0,0C75.2,13.2,74.9,12.9,74.4,12.9
		 M74.4,14.6c-0.6,0-0.8,0.3-0.8,0.8c0,0.6,0.3,0.8,0.8,0.8c0.6,0,0.8-0.3,0.8-0.8l0,0l0,0C75.2,14.9,74.9,14.6,74.4,14.6
		 M74.4,16.3c-0.6,0-0.8,0.3-0.8,0.8v0c0,0.6,0.3,0.8,0.8,0.8l0,0l0,0c0.5,0,0.8-0.3,0.8-0.8l0,0l0,0C75.2,16.6,74.9,16.3,74.4,16.3
		 M74.4,18L74.4,18c-0.6,0-0.8,0.3-0.8,0.8v0c0,0.6,0.3,0.8,0.8,0.8c0.6,0,0.8-0.3,0.8-0.8l0,0l0,0C75.2,18.3,74.9,18,74.4,18
		 M74.4,9.5c-0.5,0-0.8,0.3-0.8,0.8v0c0,0.5,0.3,0.8,0.8,0.8c0.6,0,0.8-0.3,0.8-0.8h0C75.2,9.7,74.9,9.5,74.4,9.5 M74.4,7.8
		c-0.6,0-0.8,0.3-0.8,0.8v0c0,0.6,0.3,0.8,0.8,0.8c0.6,0,0.8-0.3,0.8-0.8C75.2,8,74.9,7.8,74.4,7.8 M74.4,6c-0.6,0-0.8,0.3-0.8,0.8
		c0,0.6,0.3,0.8,0.8,0.8c0.6,0,0.8-0.3,0.8-0.8l0,0l0,0C75.2,6.3,74.9,6,74.4,6 M81.2,7.7L81.2,7.7c0.6,0,0.8-0.3,0.8-0.8v0
		C82,6.3,81.7,6,81.2,6s-0.8,0.3-0.8,0.8S80.6,7.7,81.2,7.7 M81.2,9.4c0.6,0,0.8-0.3,0.8-0.8v0c0-0.5-0.3-0.8-0.8-0.8l0,0l0,0
		c-0.6,0-0.8,0.3-0.8,0.8S80.6,9.4,81.2,9.4 M81.2,11.2c-0.6,0-0.8,0.3-0.8,0.8s0.3,0.8,0.8,0.8c0.6,0,0.8-0.3,0.8-0.8
		S81.7,11.2,81.2,11.2 M81.2,12.9c-0.6,0-0.8,0.3-0.8,0.8c0,0.6,0.3,0.8,0.8,0.8c0.6,0,0.8-0.3,0.8-0.8S81.7,12.9,81.2,12.9
		 M82,15.4c0-0.6-0.3-0.8-0.8-0.8c-0.6,0-0.8,0.3-0.8,0.8c0,0.6,0.3,0.8,0.8,0.8C81.7,16.2,82,16,82,15.4C82,15.4,82,15.4,82,15.4z
		 M82,17.1c0-0.6-0.3-0.8-0.8-0.8c-0.6,0-0.8,0.3-0.8,0.8c0,0.6,0.3,0.8,0.8,0.8l0,0l0,0C81.7,18,82,17.7,82,17.1L82,17.1z M81.2,18
		L81.2,18c-0.6,0-0.8,0.3-0.8,0.8c0,0.6,0.3,0.8,0.8,0.8c0.6,0,0.8-0.3,0.8-0.8v0C82,18.3,81.7,18,81.2,18 M79.5,12.8
		c0.6,0,0.8-0.3,0.8-0.8c0-0.6-0.3-0.8-0.8-0.8c-0.6,0-0.8,0.3-0.8,0.8C78.7,12.6,78.9,12.8,79.5,12.8 M77,12L77,12
		c0,0.6,0.3,0.8,0.8,0.8c0.6,0,0.8-0.3,0.8-0.8c0-0.6-0.3-0.8-0.8-0.8C77.2,11.2,77,11.4,77,12 M77.8,9.5c-0.6,0-0.8,0.3-0.8,0.8
		c0,0.6,0.3,0.8,0.8,0.8c0.6,0,0.8-0.3,0.8-0.8C78.6,9.7,78.3,9.5,77.8,9.5 M79.5,11.1c0.6,0,0.8-0.3,0.8-0.8S80,9.5,79.5,9.5
		c-0.6,0-0.8,0.3-0.8,0.8v0C78.7,10.8,78.9,11.1,79.5,11.1 M77.8,6L77.8,6L77.8,6c0.6,0,0.8-0.3,0.8-0.8c0-0.6-0.3-0.8-0.8-0.8
		c-0.6,0-0.8,0.3-0.8,0.8v0C77,5.7,77.2,6,77.8,6 M79.5,6L79.5,6c0.6,0,0.8-0.3,0.8-0.8v0c0-0.6-0.3-0.8-0.8-0.8
		c-0.6,0-0.8,0.3-0.8,0.8v0C78.7,5.7,78.9,6,79.5,6 M77,6.9c0,0.6,0.3,0.8,0.8,0.8c0.6,0,0.8-0.3,0.8-0.8c0-0.6-0.3-0.8-0.8-0.8h0
		C77.2,6,77,6.3,77,6.9C77,6.9,77,6.9,77,6.9z M79.5,7.7c0.6,0,0.8-0.3,0.8-0.8C80.3,6.3,80,6,79.5,6h0c-0.5,0-0.8,0.3-0.8,0.8
		C78.7,7.4,78.9,7.7,79.5,7.7 M80.3,8.6L80.3,8.6c0-0.6-0.3-0.8-0.8-0.8c-0.6,0-0.8,0.3-0.8,0.8c0,0.6,0.3,0.8,0.8,0.8
		C80,9.4,80.3,9.1,80.3,8.6 M81.2,9.5c-0.6,0-0.8,0.3-0.8,0.8c0,0.6,0.3,0.8,0.8,0.8c0.6,0,0.8-0.3,0.8-0.8S81.7,9.5,81.2,9.5
		 M82.9,6c0.6,0,0.8-0.3,0.8-0.8c0-0.6-0.3-0.8-0.8-0.8c-0.6,0-0.8,0.3-0.8,0.8v0C82.1,5.7,82.3,6,82.9,6 M81.2,4.3
		c-0.6,0-0.8,0.3-0.8,0.8c0,0.6,0.3,0.8,0.8,0.8C81.7,6,82,5.7,82,5.2v0C82,4.6,81.7,4.3,81.2,4.3"/>
	<path class="st0" d="M73.6,5.2c0,0.6,0.3,0.8,0.8,0.8c0.6,0,0.8-0.3,0.8-0.8c0-0.6-0.3-0.8-0.8-0.8V4.3c0.6,0,0.8-0.3,0.8-0.8h0.1
		c0,0.6,0.3,0.8,0.8,0.8v0.1c-0.5,0-0.8,0.3-0.8,0.8v0c0,0.5,0.3,0.8,0.8,0.8V6c-0.6,0-0.8,0.3-0.8,0.8l0,0l0,0
		c0,0.6,0.3,0.8,0.8,0.8c0.6,0,0.8-0.3,0.8-0.8h0c0-0.6-0.3-0.8-0.8-0.8V6c0.6,0,0.8-0.3,0.8-0.8c0-0.6-0.3-0.8-0.8-0.8V4.3
		c0.6,0,0.8-0.3,0.8-0.8H77c0,0.6,0.3,0.8,0.8,0.8c0.6,0,0.8-0.3,0.8-0.8h0.1c0,0.6,0.3,0.8,0.8,0.8c0.6,0,0.8-0.3,0.8-0.8h0.1
		c0,0.6,0.3,0.8,0.8,0.8C81.7,4.3,82,4,82,3.4c0-0.6-0.3-0.8-0.8-0.8c-0.6,0-0.8,0.3-0.8,0.8h-0.1c0-0.6-0.3-0.8-0.8-0.8
		c-0.6,0-0.8,0.3-0.8,0.8h-0.1c0-0.6-0.3-0.8-0.8-0.8c-0.6,0-0.8,0.3-0.8,0.8h-0.1c0-0.6-0.3-0.8-0.8-0.8c-0.6,0-0.8,0.3-0.8,0.8
		h-0.1c0-0.6-0.3-0.8-0.8-0.8c-0.6,0-0.8,0.3-0.8,0.8c0,0.6,0.3,0.8,0.8,0.8v0.1C73.8,4.3,73.6,4.6,73.6,5.2"/>
	<path class="st0" d="M76.1,19.7L76.1,19.7c-0.6,0-0.8,0.3-0.8,0.8h-0.1c0-0.6-0.3-0.8-0.8-0.8c-0.6,0-0.8,0.3-0.8,0.8h-0.1
		c0-0.6-0.3-0.8-0.8-0.8v-0.1c0.6,0,0.8-0.3,0.8-0.8S73.2,18,72.7,18V18c0.6,0,0.8-0.3,0.8-0.8s-0.3-0.8-0.8-0.8v-0.1
		c0.6,0,0.8-0.3,0.8-0.8s-0.3-0.8-0.8-0.8v-0.1c0.6,0,0.8-0.3,0.8-0.8c0-0.6-0.3-0.8-0.8-0.8v-0.1c0.6,0,0.8-0.3,0.8-0.8
		c0-0.6-0.3-0.8-0.8-0.8v-0.1c0.6,0,0.8-0.3,0.8-0.8s-0.3-0.8-0.8-0.8V9.4c0.6,0,0.8-0.3,0.8-0.8c0-0.6-0.3-0.8-0.8-0.8V7.7
		c0.6,0,0.8-0.3,0.8-0.8S73.2,6,72.7,6V6c0.6,0,0.8-0.3,0.8-0.8h0c0-0.6-0.3-0.8-0.8-0.8c-0.6,0-0.8,0.3-0.8,0.8S72.1,6,72.7,6V6
		c-0.6,0-0.8,0.3-0.8,0.8s0.3,0.8,0.8,0.8v0.1c-0.6,0-0.8,0.3-0.8,0.8c0,0.6,0.3,0.8,0.8,0.8v0.1c-0.6,0-0.8,0.3-0.8,0.8
		c0,0.6,0.3,0.8,0.8,0.8v0.1c-0.6,0-0.8,0.3-0.8,0.8c0,0.6,0.3,0.8,0.8,0.8v0.1c-0.6,0-0.8,0.3-0.8,0.8s0.3,0.8,0.8,0.8v0.1
		c-0.6,0-0.8,0.3-0.8,0.8s0.3,0.8,0.8,0.8v0.1c-0.6,0-0.8,0.3-0.8,0.8s0.3,0.8,0.8,0.8V18c-0.6,0-0.8,0.3-0.8,0.8s0.3,0.8,0.8,0.8
		v0.1c-0.6,0-0.8,0.3-0.8,0.8c0,0.6,0.3,0.8,0.8,0.8c0.6,0,0.8-0.3,0.8-0.8h0.1c0,0.6,0.3,0.8,0.8,0.8c0.6,0,0.8-0.3,0.8-0.8h0.1
		c0,0.6,0.3,0.8,0.8,0.8c0.6,0,0.8-0.3,0.8-0.8C76.9,20,76.6,19.7,76.1,19.7"/>
	<path class="st0" d="M76.1,18L76.1,18c-0.5,0-0.8,0.3-0.8,0.8v0c0,0.5,0.3,0.8,0.8,0.8v0c0.6,0,0.8-0.3,0.8-0.8
		C76.9,18.3,76.6,18,76.1,18 M76.1,16.3L76.1,16.3c-0.5,0-0.8,0.3-0.8,0.8v0c0,0.5,0.3,0.8,0.8,0.8v0c0.6,0,0.8-0.3,0.8-0.8
		S76.6,16.3,76.1,16.3 M76.1,14.6L76.1,14.6c-0.5,0-0.8,0.3-0.8,0.8v0c0,0.5,0.3,0.8,0.8,0.8v0c0.6,0,0.8-0.3,0.8-0.8
		S76.6,14.6,76.1,14.6"/>
	<path class="st0" d="M82.9,19.7L82.9,19.7c-0.6,0-0.8,0.3-0.8,0.8H82c0-0.6-0.3-0.8-0.8-0.8c-0.6,0-0.8,0.3-0.8,0.8h-0.1
		c0-0.6-0.3-0.8-0.8-0.8v-0.1c0.5,0,0.8-0.3,0.8-0.8v0c0-0.5-0.3-0.8-0.8-0.8V18c0.5,0,0.8-0.3,0.8-0.8v0c0-0.5-0.3-0.8-0.8-0.8
		v-0.1c0.6,0,0.8-0.3,0.8-0.8s-0.3-0.8-0.8-0.8v-0.1c0.5,0,0.8-0.3,0.8-0.8v0c0-0.5-0.3-0.8-0.8-0.8c-0.6,0-0.8,0.3-0.8,0.8h-0.1
		c0-0.6-0.3-0.8-0.8-0.8c-0.6,0-0.8,0.3-0.8,0.8h-0.1c0-0.6-0.3-0.8-0.8-0.8v-0.1c0.6,0,0.8-0.3,0.8-0.8c0-0.6-0.3-0.8-0.8-0.8v-0.1
		c0.6,0,0.8-0.3,0.8-0.8c0-0.6-0.3-0.8-0.8-0.8c-0.3,0-0.5,0.1-0.6,0.2c-0.1,0.1-0.2,0.3-0.2,0.6h0c0,0.6,0.3,0.8,0.8,0.8v0.1
		c-0.6,0-0.8,0.3-0.8,0.8v0c0,0.6,0.3,0.8,0.8,0.8v0.1c-0.6,0-0.8,0.3-0.8,0.8v0c0,0.6,0.3,0.8,0.8,0.8v0c0.6,0,0.8-0.3,0.8-0.8H77
		c0,0.6,0.3,0.8,0.8,0.8c0.6,0,0.8-0.3,0.8-0.8h0.1c0,0.6,0.3,0.8,0.8,0.8v0.1c-0.6,0-0.8,0.3-0.8,0.8s0.3,0.8,0.8,0.8v0.1
		c-0.6,0-0.8,0.3-0.8,0.8s0.3,0.8,0.8,0.8V18c-0.6,0-0.8,0.3-0.8,0.8s0.3,0.8,0.8,0.8v0.1c-0.6,0-0.8,0.3-0.8,0.8
		c0,0.6,0.3,0.8,0.8,0.8c0.6,0,0.8-0.3,0.8-0.8h0.1c0,0.6,0.3,0.8,0.8,0.8c0.6,0,0.8-0.3,0.8-0.8h0.1c0,0.6,0.3,0.8,0.8,0.8
		c0.6,0,0.8-0.3,0.8-0.8C83.7,20,83.4,19.7,82.9,19.7"/>
	<path class="st0" d="M82.9,18L82.9,18c-0.6,0-0.8,0.3-0.8,0.8c0,0.6,0.3,0.8,0.8,0.8v0c0.6,0,0.8-0.3,0.8-0.8
		C83.7,18.3,83.4,18,82.9,18 M82.9,16.3L82.9,16.3c-0.6,0-0.8,0.3-0.8,0.8s0.3,0.8,0.8,0.8v0c0.6,0,0.8-0.3,0.8-0.8
		C83.7,16.6,83.4,16.3,82.9,16.3 M82.9,14.6L82.9,14.6c-0.6,0-0.8,0.3-0.8,0.8s0.3,0.8,0.8,0.8v0c0.6,0,0.8-0.3,0.8-0.8
		S83.4,14.6,82.9,14.6 M82.9,12.9L82.9,12.9c-0.6,0-0.8,0.3-0.8,0.8s0.3,0.8,0.8,0.8v0c0.6,0,0.8-0.3,0.8-0.8
		C83.7,13.2,83.4,12.9,82.9,12.9 M82.9,11.2L82.9,11.2c-0.6,0-0.8,0.3-0.8,0.8s0.3,0.8,0.8,0.8v0c0.6,0,0.8-0.3,0.8-0.8
		C83.7,11.4,83.4,11.2,82.9,11.2 M82.9,9.5c-0.6,0-0.8,0.3-0.8,0.8c0,0.6,0.3,0.8,0.8,0.8v0c0.6,0,0.8-0.3,0.8-0.8
		C83.7,9.7,83.4,9.5,82.9,9.5 M82.9,7.8L82.9,7.8c-0.6,0-0.8,0.3-0.8,0.8c0,0.6,0.3,0.8,0.8,0.8c0.6,0,0.8-0.3,0.8-0.8
		C83.7,8,83.4,7.8,82.9,7.8 M96.8,7.7L96.8,7.7L96.8,7.7c0.6,0,0.8-0.3,0.8-0.8c0-0.6-0.3-0.8-0.8-0.8C96.3,6,96,6.3,96,6.9v0
		C96,7.4,96.3,7.7,96.8,7.7 M95.1,9.4c0.6,0,0.8-0.3,0.8-0.8v0c0-0.5-0.3-0.8-0.8-0.8l0,0l0,0c-0.6,0-0.8,0.3-0.8,0.8
		S94.6,9.4,95.1,9.4 M93.4,4.3c-0.6,0-0.8,0.3-0.8,0.8v0c0,0.5,0.3,0.8,0.8,0.8h0c0.6,0,0.8-0.3,0.8-0.8v0C94.3,4.6,94,4.3,93.4,4.3
		 M91.7,4.3c-0.6,0-0.8,0.3-0.8,0.8v0c0,0.6,0.3,0.8,0.8,0.8h0c0.6,0,0.8-0.3,0.8-0.8v0C92.6,4.6,92.3,4.3,91.7,4.3 M90,6L90,6
		c0.6,0,0.8-0.3,0.8-0.8c0-0.6-0.3-0.8-0.8-0.8c-0.6,0-0.8,0.3-0.8,0.8v0C89.2,5.7,89.5,6,90,6 M90.1,18L90.1,18L90.1,18
		c-0.6,0-0.8,0.3-0.8,0.8c0,0.6,0.3,0.8,0.8,0.8c0.6,0,0.8-0.3,0.8-0.8v0C90.9,18.3,90.6,18,90.1,18 M90.9,18.8
		c0,0.6,0.3,0.8,0.8,0.8c0.6,0,0.8-0.3,0.8-0.8c0-0.5-0.3-0.8-0.8-0.8l0,0l0,0C91.2,18,90.9,18.3,90.9,18.8
		C90.9,18.8,90.9,18.8,90.9,18.8z M94.3,18.8c0-0.5-0.3-0.8-0.8-0.8h0c-0.6,0-0.8,0.3-0.8,0.8v0c0,0.6,0.3,0.8,0.8,0.8
		C94,19.7,94.3,19.4,94.3,18.8L94.3,18.8z M94.3,17.1c0,0.5,0.3,0.8,0.8,0.8c0.6,0,0.8-0.3,0.8-0.8s-0.3-0.8-0.8-0.8
		C94.6,16.3,94.3,16.6,94.3,17.1L94.3,17.1z M95.1,14.6c-0.6,0-0.8,0.3-0.8,0.8v0c0,0.6,0.3,0.8,0.8,0.8c0.6,0,0.8-0.3,0.8-0.8v0
		C96,14.9,95.7,14.6,95.1,14.6 M88.3,6c-0.6,0-0.8,0.3-0.8,0.8c0,0.6,0.3,0.8,0.8,0.8h0c0.5,0,0.8-0.3,0.8-0.8v0
		C89.2,6.3,88.9,6,88.3,6 M88.4,7.8L88.4,7.8c-0.6,0-0.8,0.3-0.8,0.8c0,0.6,0.3,0.8,0.8,0.8c0.5,0,0.8-0.3,0.8-0.8v0
		C89.2,8,88.9,7.8,88.4,7.8 M88.3,9.5c-0.6,0-0.8,0.3-0.8,0.8c0,0.6,0.3,0.8,0.8,0.8s0.8-0.3,0.8-0.8v0C89.2,9.7,88.9,9.5,88.3,9.5
		 M88.3,11.2c-0.6,0-0.8,0.3-0.8,0.8s0.3,0.8,0.8,0.8s0.8-0.3,0.8-0.8v0C89.2,11.4,88.9,11.2,88.3,11.2 M88.3,12.9
		c-0.6,0-0.8,0.3-0.8,0.8c0,0.6,0.3,0.8,0.8,0.8s0.8-0.3,0.8-0.8v0C89.2,13.2,88.9,12.9,88.3,12.9 M89.2,15.4c0-0.5-0.3-0.8-0.8-0.8
		c-0.6,0-0.8,0.3-0.8,0.8c0,0.6,0.3,0.8,0.8,0.8C88.9,16.2,89.2,16,89.2,15.4C89.2,15.4,89.2,15.4,89.2,15.4z M87.5,17.1L87.5,17.1
		c0,0.6,0.3,0.8,0.8,0.8c0.5,0,0.8-0.3,0.8-0.8v0c0-0.6-0.3-0.8-0.8-0.8C87.8,16.3,87.5,16.6,87.5,17.1 M95.1,7.7L95.1,7.7
		c0.6,0,0.8-0.3,0.8-0.8v0C96,6.3,95.7,6,95.1,6c-0.6,0-0.8,0.3-0.8,0.8S94.6,7.7,95.1,7.7 M96.8,6c0.6,0,0.8-0.3,0.8-0.8
		c0-0.6-0.3-0.8-0.8-0.8S96,4.6,96,5.2v0C96,5.7,96.3,6,96.8,6 M95.1,4.3L95.1,4.3c-0.6,0-0.8,0.3-0.8,0.8v0c0,0.5,0.3,0.8,0.8,0.8
		C95.7,6,96,5.7,96,5.2v0C96,4.6,95.7,4.3,95.1,4.3"/>
	<path class="st0" d="M87.5,5.2L87.5,5.2c0,0.6,0.3,0.8,0.8,0.8c0.6,0,0.8-0.3,0.8-0.8c0-0.6-0.3-0.8-0.8-0.8V4.3
		c0.6,0,0.8-0.3,0.8-0.8h0.1c0,0.6,0.3,0.8,0.8,0.8c0.6,0,0.8-0.3,0.8-0.8h0.1c0,0.6,0.3,0.8,0.8,0.8c0.6,0,0.8-0.3,0.8-0.8h0.1
		c0,0.6,0.3,0.8,0.8,0.8c0.6,0,0.8-0.3,0.8-0.8h0.1c0,0.6,0.3,0.8,0.8,0.8v0C95.7,4.3,96,4,96,3.4c0-0.6-0.3-0.8-0.8-0.8
		c-0.6,0-0.8,0.3-0.8,0.8h-0.1c0-0.6-0.3-0.8-0.8-0.8c-0.6,0-0.8,0.3-0.8,0.8h-0.1c0-0.6-0.3-0.8-0.8-0.8c-0.6,0-0.8,0.3-0.8,0.8
		h-0.1c0-0.6-0.3-0.8-0.8-0.8c-0.6,0-0.8,0.3-0.8,0.8h-0.1c0-0.6-0.3-0.8-0.8-0.8c-0.6,0-0.8,0.3-0.8,0.8c0,0.6,0.3,0.8,0.8,0.8v0.1
		C87.8,4.3,87.5,4.6,87.5,5.2"/>
	<path class="st0" d="M95.1,19.7L95.1,19.7c-0.6,0-0.8,0.3-0.8,0.8h-0.1c0-0.6-0.3-0.8-0.8-0.8c-0.6,0-0.8,0.3-0.8,0.8h-0.1
		c0-0.6-0.3-0.8-0.8-0.8c-0.6,0-0.8,0.3-0.8,0.8h-0.1c0-0.6-0.3-0.8-0.8-0.8c-0.6,0-0.8,0.3-0.8,0.8h-0.1c0-0.6-0.3-0.8-0.8-0.8
		l0-0.1c0.6,0,0.8-0.3,0.8-0.8c0-0.6-0.3-0.8-0.8-0.8c-0.6,0-0.8,0.3-0.8,0.8h-0.1c0-0.6-0.3-0.8-0.8-0.8V18c0.6,0,0.8-0.3,0.8-0.8
		c0-0.6-0.3-0.8-0.8-0.8v-0.1c0.6,0,0.8-0.3,0.8-0.8c0-0.6-0.3-0.8-0.8-0.8v-0.1c0.6,0,0.8-0.3,0.8-0.8s-0.3-0.8-0.8-0.8v-0.1
		c0.6,0,0.8-0.3,0.8-0.8c0-0.6-0.3-0.8-0.8-0.8v-0.1c0.6,0,0.8-0.3,0.8-0.8c0-0.6-0.3-0.8-0.8-0.8V9.4c0.6,0,0.8-0.3,0.8-0.8
		c0-0.6-0.3-0.8-0.8-0.8V7.7c0.6,0,0.8-0.3,0.8-0.8c0-0.6-0.3-0.8-0.8-0.8V6c0.6,0,0.8-0.3,0.8-0.8h0c0-0.6-0.3-0.8-0.8-0.8
		c-0.6,0-0.8,0.3-0.8,0.8c0,0.6,0.3,0.8,0.8,0.8V6c-0.6,0-0.8,0.3-0.8,0.8c0,0.6,0.3,0.8,0.8,0.8v0.1c-0.6,0-0.8,0.3-0.8,0.8
		c0,0.6,0.3,0.8,0.8,0.8v0.1c-0.6,0-0.8,0.3-0.8,0.8c0,0.6,0.3,0.8,0.8,0.8v0.1c-0.6,0-0.8,0.3-0.8,0.8c0,0.6,0.3,0.8,0.8,0.8v0.1
		c-0.6,0-0.8,0.3-0.8,0.8c0,0.6,0.3,0.8,0.8,0.8v0.1c-0.6,0-0.8,0.3-0.8,0.8c0,0.6,0.3,0.8,0.8,0.8v0.1c-0.6,0-0.8,0.3-0.8,0.8
		c0,0.6,0.3,0.8,0.8,0.8V18c-0.6,0-0.8,0.3-0.8,0.8s0.3,0.8,0.8,0.8c0.6,0,0.8-0.3,0.8-0.8h0.1c0,0.6,0.3,0.8,0.8,0.8v0.1
		c-0.6,0-0.8,0.3-0.8,0.8c0,0.6,0.3,0.8,0.8,0.8c0.6,0,0.8-0.3,0.8-0.8h0.1c0,0.6,0.3,0.8,0.8,0.8c0.6,0,0.8-0.3,0.8-0.8h0.1
		c0,0.6,0.3,0.8,0.8,0.8c0.6,0,0.8-0.3,0.8-0.8h0.1c0,0.6,0.3,0.8,0.8,0.8c0.6,0,0.8-0.3,0.8-0.8h0.1c0,0.6,0.3,0.8,0.8,0.8
		c0.6,0,0.8-0.3,0.8-0.8C96,20,95.7,19.7,95.1,19.7"/>
	<path class="st0" d="M96.8,18L96.8,18c-0.6,0-0.8,0.3-0.8,0.8H96c0-0.6-0.3-0.8-0.8-0.8c-0.6,0-0.8,0.3-0.8,0.8v0
		c0,0.5,0.3,0.8,0.8,0.8v0c0.6,0,0.8-0.3,0.8-0.8H96c0,0.6,0.3,0.8,0.8,0.8c0.6,0,0.8-0.3,0.8-0.8S97.4,18,96.8,18 M96.8,16.3
		L96.8,16.3c-0.6,0-0.8,0.3-0.8,0.8v0c0,0.6,0.3,0.8,0.8,0.8v0c0.6,0,0.8-0.3,0.8-0.8C97.7,16.6,97.4,16.3,96.8,16.3 M96.8,14.6
		L96.8,14.6c-0.6,0-0.8,0.3-0.8,0.8v0c0,0.6,0.3,0.8,0.8,0.8v0c0.6,0,0.8-0.3,0.8-0.8C97.7,14.9,97.4,14.6,96.8,14.6 M96.8,12.9
		c-0.6,0-0.8,0.3-0.8,0.8v0c0,0.6,0.3,0.8,0.8,0.8v0c0.6,0,0.8-0.3,0.8-0.8C97.7,13.2,97.4,12.9,96.8,12.9 M95.1,14.5
		c0.5,0,0.8-0.3,0.8-0.8v0c0-0.5-0.3-0.8-0.8-0.8c-0.6,0-0.8,0.3-0.8,0.8v0C94.3,14.3,94.6,14.5,95.1,14.5 M93.4,14.5L93.4,14.5
		c0.5,0,0.8-0.3,0.8-0.8v0c0-0.5-0.3-0.8-0.8-0.8c-0.6,0-0.8,0.3-0.8,0.8C92.6,14.3,92.9,14.5,93.4,14.5 M93.4,14.6L93.4,14.6
		c-0.6,0-0.8,0.3-0.8,0.8s0.3,0.8,0.8,0.8v0c0.6,0,0.8-0.3,0.8-0.8v0C94.3,14.9,94,14.6,93.4,14.6 M94.3,17.1c0-0.6-0.3-0.8-0.8-0.8
		c-0.6,0-0.8,0.3-0.8,0.8v0c0,0.6,0.3,0.8,0.8,0.8h0l0,0C94,18,94.3,17.7,94.3,17.1L94.3,17.1z M92.6,17.1L92.6,17.1
		c0-0.6-0.3-0.8-0.8-0.8s-0.8,0.3-0.8,0.8h0c0,0.6,0.3,0.8,0.8,0.8h0C92.3,17.9,92.6,17.7,92.6,17.1L92.6,17.1z M90.9,17.1
		c0-0.6-0.3-0.8-0.8-0.8v0c-0.6,0-0.8,0.3-0.8,0.8c0,0.5,0.3,0.8,0.8,0.8h0C90.6,18,90.9,17.7,90.9,17.1z M90.9,15.4
		c0-0.6-0.3-0.8-0.8-0.8v0c-0.6,0-0.8,0.3-0.8,0.8v0c0,0.6,0.3,0.8,0.8,0.8v0C90.6,16.2,90.9,16,90.9,15.4 M90,12.9L90,12.9
		c-0.6,0-0.8,0.3-0.8,0.8v0c0,0.6,0.3,0.8,0.8,0.8v0c0.6,0,0.8-0.3,0.8-0.8C90.9,13.2,90.6,12.9,90,12.9 M90,11.2L90,11.2
		c-0.6,0-0.8,0.3-0.8,0.8v0c0,0.6,0.3,0.8,0.8,0.8v0c0.6,0,0.8-0.3,0.8-0.8C90.9,11.4,90.6,11.2,90,11.2 M90,11.1L90,11.1
		c0.6,0,0.8-0.3,0.8-0.8c0-0.6-0.3-0.8-0.8-0.8c-0.6,0-0.8,0.3-0.8,0.8v0C89.2,10.8,89.5,11.1,90,11.1 M90,7.8L90,7.8
		c-0.6,0-0.8,0.3-0.8,0.8v0c0,0.6,0.3,0.8,0.8,0.8c0.6,0,0.8-0.3,0.8-0.8C90.9,8,90.6,7.8,90,7.8 M90,7.7L90,7.7
		c0.6,0,0.8-0.3,0.8-0.8h0C90.9,6.3,90.6,6,90,6h0c-0.6,0-0.8,0.3-0.8,0.8v0C89.2,7.4,89.5,7.7,90,7.7 M91.7,7.7
		c0.6,0,0.8-0.3,0.8-0.8v0c0-0.6-0.3-0.8-0.8-0.8h0c-0.6,0-0.8,0.3-0.8,0.8v0C90.9,7.4,91.2,7.7,91.7,7.7 M93.4,7.7L93.4,7.7
		c0.6,0,0.8-0.3,0.8-0.8C94.3,6.3,94,6,93.4,6h0c-0.6,0-0.8,0.3-0.8,0.8v0C92.6,7.4,92.9,7.7,93.4,7.7 M93.4,9.4
		c0.6,0,0.8-0.3,0.8-0.8S94,7.8,93.4,7.8l0,0l0,0c-0.6,0-0.8,0.3-0.8,0.8S92.9,9.4,93.4,9.4 M95.1,11.1c0.6,0,0.8-0.3,0.8-0.8
		c0-0.6-0.3-0.8-0.8-0.8c-0.6,0-0.8,0.3-0.8,0.8h-0.1c0-0.6-0.3-0.8-0.8-0.8c-0.6,0-0.8,0.3-0.8,0.8c0,0.6,0.3,0.8,0.8,0.8
		c0.6,0,0.8-0.3,0.8-0.8h0.1C94.3,10.8,94.6,11.1,95.1,11.1 M96.8,9.5L96.8,9.5c-0.6,0-0.8,0.3-0.8,0.8c0,0.6,0.3,0.8,0.8,0.8
		c0.6,0,0.8-0.3,0.8-0.8C97.7,9.7,97.4,9.5,96.8,9.5 M96.8,7.8L96.8,7.8C96.3,7.8,96,8,96,8.6v0c0,0.5,0.3,0.8,0.8,0.8h0
		c0.5,0,0.8-0.3,0.8-0.8C97.7,8,97.4,7.8,96.8,7.8 M107.4,12.8c0.6,0,0.8-0.3,0.8-0.8l0,0l0,0c0-0.5-0.3-0.8-0.8-0.8h0
		c-0.5,0-0.8,0.3-0.8,0.8v0C106.6,12.6,106.9,12.8,107.4,12.8 M108.3,8.6c0,0.6,0.3,0.8,0.8,0.8c0.6,0,0.8-0.3,0.8-0.8
		s-0.3-0.8-0.8-0.8C108.6,7.8,108.3,8,108.3,8.6L108.3,8.6z M109.1,4.3L109.1,4.3c-0.6,0-0.8,0.3-0.8,0.8v0c0,0.6,0.3,0.8,0.8,0.8h0
		c0.5,0,0.8-0.3,0.8-0.8v0C109.9,4.6,109.7,4.3,109.1,4.3 M109.1,6L109.1,6c-0.6,0-0.8,0.3-0.8,0.8c0,0.6,0.3,0.8,0.8,0.8
		c0.6,0,0.8-0.3,0.8-0.8v0C109.9,6.3,109.7,6,109.1,6 M109.9,15.4L109.9,15.4c0-0.6-0.3-0.8-0.8-0.8h0c-0.5,0-0.8,0.3-0.8,0.8
		c0,0.6,0.3,0.8,0.8,0.8C109.7,16.2,109.9,16,109.9,15.4 M109.1,18L109.1,18L109.1,18c0.6,0,0.8-0.3,0.8-0.8v0
		c0-0.5-0.3-0.8-0.8-0.8c-0.6,0-0.8,0.3-0.8,0.8C108.3,17.7,108.6,18,109.1,18 M109.1,19.7c0.6,0,0.8-0.3,0.8-0.8v0
		c0-0.5-0.3-0.8-0.8-0.8h0c-0.5,0-0.8,0.3-0.8,0.8C108.3,19.4,108.6,19.7,109.1,19.7 M102.3,4.3L102.3,4.3c-0.6,0-0.8,0.3-0.8,0.8
		c0,0.6,0.3,0.8,0.8,0.8h0c0.5,0,0.8-0.3,0.8-0.8l0,0l0,0C103.1,4.6,102.9,4.3,102.3,4.3 M104,12.8c0.5,0,0.8-0.3,0.8-0.8v0
		c0-0.5-0.3-0.8-0.8-0.8h0c-0.5,0-0.8,0.3-0.8,0.8v0C103.2,12.6,103.5,12.8,104,12.8 M105.7,12.8c0.5,0,0.8-0.3,0.8-0.8v0
		c0-0.5-0.3-0.8-0.8-0.8h0c-0.5,0-0.8,0.3-0.8,0.8v0C104.9,12.6,105.2,12.8,105.7,12.8 M102.3,12.9c-0.6,0-0.8,0.3-0.8,0.8
		c0,0.6,0.3,0.8,0.8,0.8c0.5,0,0.8-0.3,0.8-0.8l0,0l0,0C103.1,13.1,102.9,12.9,102.3,12.9 M102.3,14.6c-0.6,0-0.8,0.3-0.8,0.8
		c0,0.6,0.3,0.8,0.8,0.8c0.5,0,0.8-0.3,0.8-0.8l0,0l0,0C103.1,14.9,102.9,14.6,102.3,14.6 M102.3,16.3c-0.6,0-0.8,0.3-0.8,0.8
		s0.3,0.8,0.8,0.8h0l0,0c0.5,0,0.8-0.3,0.8-0.8l0,0l0,0C103.1,16.6,102.9,16.3,102.3,16.3 M102.3,18L102.3,18
		c-0.6,0-0.8,0.3-0.8,0.8v0c0,0.6,0.3,0.8,0.8,0.8c0.5,0,0.8-0.3,0.8-0.8l0,0l0,0C103.1,18.3,102.9,18,102.3,18 M102.3,7.7
		c0.5,0,0.8-0.3,0.8-0.8l0,0l0,0c0-0.5-0.3-0.8-0.8-0.8h0c-0.5,0-0.8,0.3-0.8,0.8C101.5,7.4,101.8,7.7,102.3,7.7 M103.1,8.6
		c0-0.5-0.3-0.8-0.8-0.8c-0.6,0-0.8,0.3-0.8,0.8c0,0.6,0.3,0.8,0.8,0.8C102.9,9.4,103.1,9.1,103.1,8.6L103.1,8.6z M102.3,9.5
		c-0.6,0-0.8,0.3-0.8,0.8c0,0.6,0.3,0.8,0.8,0.8c0.5,0,0.8-0.3,0.8-0.8l0,0l0,0C103.1,9.7,102.9,9.5,102.3,9.5 M103.1,12
		c0-0.5-0.3-0.8-0.8-0.8c-0.6,0-0.8,0.3-0.8,0.8s0.3,0.8,0.8,0.8C102.9,12.8,103.1,12.6,103.1,12C103.1,12,103.1,12,103.1,12z
		 M105.7,11.1L105.7,11.1L105.7,11.1c0.6,0,0.8-0.3,0.8-0.8h0c0-0.6-0.3-0.8-0.8-0.8c-0.6,0-0.8,0.3-0.8,0.8h0
		C104.9,10.8,105.2,11.1,105.7,11.1 M104,11.1L104,11.1L104,11.1c0.6,0,0.8-0.3,0.8-0.8h0c0-0.6-0.3-0.8-0.8-0.8
		c-0.5,0-0.8,0.3-0.8,0.8v0C103.2,10.9,103.5,11.1,104,11.1 M104,7.8L104,7.8c-0.6,0-0.8,0.3-0.8,0.8v0c0,0.6,0.3,0.8,0.8,0.8
		c0.6,0,0.8-0.3,0.8-0.8C104.8,8,104.6,7.8,104,7.8 M104,7.7L104,7.7c0.6,0,0.8-0.3,0.8-0.8c0-0.6-0.3-0.8-0.8-0.8
		c-0.5,0-0.8,0.3-0.8,0.8l0,0l0,0C103.2,7.4,103.5,7.7,104,7.7 M104,6c0.6,0,0.8-0.3,0.8-0.8c0-0.6-0.3-0.8-0.8-0.8v0
		c-0.5,0-0.8,0.3-0.8,0.8v0C103.2,5.7,103.5,6,104,6"/>
	<path class="st0" d="M104,19.7L104,19.7c-0.6,0-0.8,0.3-0.8,0.8h-0.1c0-0.6-0.3-0.8-0.8-0.8c-0.6,0-0.8,0.3-0.8,0.8h-0.1
		c0-0.6-0.3-0.8-0.8-0.8v-0.1c0.6,0,0.8-0.3,0.8-0.8s-0.3-0.8-0.8-0.8V18c0.6,0,0.8-0.3,0.8-0.8s-0.3-0.8-0.8-0.8v-0.1
		c0.6,0,0.8-0.3,0.8-0.8c0-0.6-0.3-0.8-0.8-0.8v-0.1c0.6,0,0.8-0.3,0.8-0.8s-0.3-0.8-0.8-0.8v-0.1c0.6,0,0.8-0.3,0.8-0.8
		s-0.3-0.8-0.8-0.8v-0.1c0.6,0,0.8-0.3,0.8-0.8c0-0.6-0.3-0.8-0.8-0.8V9.4c0.6,0,0.8-0.3,0.8-0.8s-0.3-0.8-0.8-0.8V7.7
		c0.6,0,0.8-0.3,0.8-0.8c0-0.6-0.3-0.8-0.8-0.8V6c0.6,0,0.8-0.3,0.8-0.8c0-0.6-0.3-0.8-0.8-0.8V4.3c0.6,0,0.8-0.3,0.8-0.8h0.1
		c0,0.6,0.3,0.8,0.8,0.8h0c0.6,0,0.8-0.3,0.8-0.8h0.1c0,0.6,0.3,0.8,0.8,0.8c0.6,0,0.8-0.3,0.8-0.8c0-0.6-0.3-0.8-0.8-0.8
		c-0.6,0-0.8,0.3-0.8,0.8h-0.1c0-0.6-0.3-0.8-0.8-0.8c-0.6,0-0.8,0.3-0.8,0.8h-0.1c0-0.6-0.3-0.8-0.8-0.8c-0.6,0-0.8,0.3-0.8,0.8
		c0,0.6,0.3,0.8,0.8,0.8v0.1c-0.6,0-0.8,0.3-0.8,0.8s0.3,0.8,0.8,0.8V6c-0.6,0-0.8,0.3-0.8,0.8c0,0.6,0.3,0.8,0.8,0.8v0.1
		c-0.6,0-0.8,0.3-0.8,0.8s0.3,0.8,0.8,0.8v0.1c-0.6,0-0.8,0.3-0.8,0.8s0.3,0.8,0.8,0.8v0.1c-0.6,0-0.8,0.3-0.8,0.8
		c0,0.6,0.3,0.8,0.8,0.8v0.1c-0.6,0-0.8,0.3-0.8,0.8c0,0.6,0.3,0.8,0.8,0.8v0.1c-0.6,0-0.8,0.3-0.8,0.8c0,0.6,0.3,0.8,0.8,0.8v0.1
		c-0.6,0-0.8,0.3-0.8,0.8s0.3,0.8,0.8,0.8V18c-0.6,0-0.8,0.3-0.8,0.8c0,0.6,0.3,0.8,0.8,0.8v0.1c-0.6,0-0.8,0.3-0.8,0.8
		c0,0.6,0.3,0.8,0.8,0.8c0.6,0,0.8-0.3,0.8-0.8h0.1c0,0.6,0.3,0.8,0.8,0.8c0.6,0,0.8-0.3,0.8-0.8h0.1c0,0.6,0.3,0.8,0.8,0.8
		c0.6,0,0.8-0.3,0.8-0.8C104.8,20,104.6,19.7,104,19.7"/>
	<path class="st0" d="M103.2,18.8L103.2,18.8c0,0.6,0.3,0.8,0.8,0.8v0c0.6,0,0.8-0.3,0.8-0.8c0-0.6-0.3-0.8-0.8-0.8v0
		C103.5,18,103.2,18.3,103.2,18.8L103.2,18.8z M103.2,17.1L103.2,17.1c0,0.6,0.3,0.8,0.8,0.8v0c0.6,0,0.8-0.3,0.8-0.8
		s-0.3-0.8-0.8-0.8v0C103.5,16.3,103.2,16.6,103.2,17.1C103.2,17.1,103.2,17.1,103.2,17.1z M103.2,15.4L103.2,15.4
		c0,0.6,0.3,0.8,0.8,0.8v0c0.6,0,0.8-0.3,0.8-0.8c0-0.6-0.3-0.8-0.8-0.8v0C103.5,14.6,103.2,14.9,103.2,15.4"/>
	<path class="st0" d="M110.8,19.7L110.8,19.7c-0.6,0-0.8,0.3-0.8,0.8h-0.1c0-0.6-0.3-0.8-0.8-0.8c-0.6,0-0.8,0.3-0.8,0.8h-0.1
		c0-0.6-0.3-0.8-0.8-0.8v-0.1c0.6,0,0.8-0.3,0.8-0.8S108,18,107.4,18V18c0.6,0,0.8-0.3,0.8-0.8s-0.3-0.8-0.8-0.8v-0.1
		c0.6,0,0.8-0.3,0.8-0.8c0-0.6-0.3-0.8-0.8-0.8v-0.1c0.6,0,0.8-0.3,0.8-0.8s-0.3-0.8-0.8-0.8c-0.6,0-0.8,0.3-0.8,0.8h-0.1
		c0-0.6-0.3-0.8-0.8-0.8c-0.6,0-0.8,0.3-0.8,0.8h-0.1c0-0.6-0.3-0.8-0.8-0.8c-0.5,0-0.8,0.3-0.8,0.8l0,0l0,0c0,0.5,0.3,0.8,0.8,0.8
		v0c0.6,0,0.8-0.3,0.8-0.8h0.1c0,0.6,0.3,0.8,0.8,0.8c0.6,0,0.8-0.3,0.8-0.8h0.1c0,0.6,0.3,0.8,0.8,0.8v0.1c-0.6,0-0.8,0.3-0.8,0.8
		s0.3,0.8,0.8,0.8v0.1c-0.6,0-0.8,0.3-0.8,0.8c0,0.6,0.3,0.8,0.8,0.8V18c-0.6,0-0.8,0.3-0.8,0.8c0,0.6,0.3,0.8,0.8,0.8v0.1
		c-0.6,0-0.8,0.3-0.8,0.8s0.3,0.8,0.8,0.8c0.6,0,0.8-0.3,0.8-0.8h0.1c0,0.6,0.3,0.8,0.8,0.8c0.6,0,0.8-0.3,0.8-0.8h0.1
		c0,0.6,0.3,0.8,0.8,0.8c0.6,0,0.8-0.3,0.8-0.8C111.6,20,111.4,19.7,110.8,19.7"/>
	<path class="st0" d="M111.6,18.8c0-0.6-0.3-0.8-0.8-0.8v0c-0.6,0-0.8,0.3-0.8,0.8v0c0,0.6,0.3,0.8,0.8,0.8v0
		C111.4,19.7,111.6,19.4,111.6,18.8 M110.8,16.3L110.8,16.3c-0.6,0-0.8,0.3-0.8,0.8v0c0,0.6,0.3,0.8,0.8,0.8v0
		c0.6,0,0.8-0.3,0.8-0.8S111.4,16.3,110.8,16.3 M110.8,14.6L110.8,14.6c-0.6,0-0.8,0.3-0.8,0.8v0c0,0.6,0.3,0.8,0.8,0.8v0
		c0.6,0,0.8-0.3,0.8-0.8C111.6,14.9,111.4,14.6,110.8,14.6 M111.6,13.7c0-0.6-0.3-0.8-0.8-0.8c-0.6,0-0.8,0.3-0.8,0.8
		s0.3,0.8,0.8,0.8v0C111.4,14.5,111.6,14.3,111.6,13.7 M109.9,13.7c0-0.6-0.3-0.8-0.8-0.8v0c-0.6,0-0.8,0.3-0.8,0.8
		c0,0.5,0.3,0.8,0.8,0.8l0,0l0,0C109.7,14.5,109.9,14.3,109.9,13.7L109.9,13.7z M109.1,12.8L109.1,12.8c0.6,0,0.8-0.3,0.8-0.8
		c0-0.6-0.3-0.8-0.8-0.8v0c-0.6,0-0.8,0.3-0.8,0.8v0C108.3,12.6,108.6,12.8,109.1,12.8 M108.3,10.3c0,0.6,0.3,0.8,0.8,0.8v0
		c0.6,0,0.8-0.3,0.8-0.8h0.1c0,0.6,0.3,0.8,0.8,0.8c0.6,0,0.8-0.3,0.8-0.8c0-0.6-0.3-0.8-0.8-0.8c-0.6,0-0.8,0.3-0.8,0.8h-0.1
		c0-0.6-0.3-0.8-0.8-0.8C108.6,9.5,108.3,9.7,108.3,10.3L108.3,10.3z M110,8.6c0,0.6,0.3,0.8,0.8,0.8c0.6,0,0.8-0.3,0.8-0.8
		s-0.3-0.8-0.8-0.8C110.3,7.8,110,8,110,8.6 M110.8,7.7c0.6,0,0.8-0.3,0.8-0.8c0-0.6-0.3-0.8-0.8-0.8c-0.6,0-0.8,0.3-0.8,0.8v0
		C110,7.4,110.3,7.7,110.8,7.7 M110.8,6c0.6,0,0.8-0.3,0.8-0.8c0-0.6-0.3-0.8-0.8-0.8c-0.6,0-0.8,0.3-0.8,0.8v0
		C110,5.7,110.3,6,110.8,6"/>
	<path class="st0" d="M110.8,2.6c-0.6,0-0.8,0.3-0.8,0.8h-0.1c0-0.6-0.3-0.8-0.8-0.8c-0.6,0-0.8,0.3-0.8,0.8h-0.1
		c0-0.6-0.3-0.8-0.8-0.8c-0.6,0-0.8,0.3-0.8,0.8c0,0.6,0.3,0.8,0.8,0.8v0.1c-0.6,0-0.8,0.3-0.8,0.8c0,0.6,0.3,0.8,0.8,0.8V6
		c-0.6,0-0.8,0.3-0.8,0.8c0,0.6,0.3,0.8,0.8,0.8v0.1c-0.6,0-0.8,0.3-0.8,0.8c0,0.6,0.3,0.8,0.8,0.8v0.1c-0.6,0-0.8,0.3-0.8,0.8h0
		c0,0.6,0.3,0.8,0.8,0.8l0,0l0,0c0.5,0,0.8-0.3,0.8-0.8h0c0-0.6-0.3-0.8-0.8-0.8V9.4c0.6,0,0.8-0.3,0.8-0.8h0c0-0.6-0.3-0.8-0.8-0.8
		V7.7c0.6,0,0.8-0.3,0.8-0.8c0-0.6-0.3-0.8-0.8-0.8V6c0.6,0,0.8-0.3,0.8-0.8c0-0.6-0.3-0.8-0.8-0.8V4.3c0.6,0,0.8-0.3,0.8-0.8h0.1
		c0,0.6,0.3,0.8,0.8,0.8h0c0.6,0,0.8-0.3,0.8-0.8h0.1c0,0.6,0.3,0.8,0.8,0.8c0.6,0,0.8-0.3,0.8-0.8C111.6,2.9,111.4,2.6,110.8,2.6
		 M118,6L118,6c0.6,0,0.8-0.3,0.8-0.8v0c0-0.6-0.3-0.8-0.8-0.8h0c-0.6,0-0.8,0.3-0.8,0.8v0C117.2,5.7,117.4,6,118,6 M119.7,6
		L119.7,6c0.6,0,0.8-0.3,0.8-0.8v0c0-0.6-0.3-0.8-0.8-0.8h0c-0.6,0-0.8,0.3-0.8,0.8C118.9,5.7,119.1,6,119.7,6 M121.4,4.3L121.4,4.3
		c-0.6,0-0.8,0.3-0.8,0.8v0c0,0.6,0.3,0.8,0.8,0.8c0.5,0,0.8-0.3,0.8-0.8v0C122.2,4.6,121.9,4.3,121.4,4.3 M123.1,6L123.1,6
		c-0.6,0-0.8,0.3-0.8,0.8v0c0,0.6,0.3,0.8,0.8,0.8h0c0.5,0,0.8-0.3,0.8-0.8l0,0l0,0C123.9,6.3,123.6,6,123.1,6 M121.4,11.2
		c-0.6,0-0.8,0.3-0.8,0.8s0.3,0.8,0.8,0.8c0.5,0,0.8-0.3,0.8-0.8v0C122.2,11.4,121.9,11.2,121.4,11.2 M119.7,12.8
		c0.6,0,0.8-0.3,0.8-0.8c0-0.6-0.3-0.8-0.8-0.8c-0.6,0-0.8,0.3-0.8,0.8C118.9,12.6,119.1,12.8,119.7,12.8 M118,12.8
		c0.6,0,0.8-0.3,0.8-0.8c0-0.6-0.3-0.8-0.8-0.8c-0.6,0-0.8,0.3-0.8,0.8v0C117.2,12.6,117.4,12.8,118,12.8 M116.3,11.2
		c-0.6,0-0.8,0.3-0.8,0.8v0c0,0.6,0.3,0.8,0.8,0.8c0.6,0,0.8-0.3,0.8-0.8v0C117.1,11.4,116.8,11.2,116.3,11.2 M116.3,12.9
		c-0.6,0-0.8,0.3-0.8,0.8v0c0,0.6,0.3,0.8,0.8,0.8c0.5,0,0.8-0.3,0.8-0.8v0v0C117.1,13.1,116.8,12.9,116.3,12.9 M116.3,14.6
		c-0.6,0-0.8,0.3-0.8,0.8c0,0.6,0.3,0.8,0.8,0.8c0.5,0,0.8-0.3,0.8-0.8v0v0C117.1,14.9,116.8,14.6,116.3,14.6 M116.3,16.3
		c-0.6,0-0.8,0.3-0.8,0.8v0c0,0.6,0.3,0.8,0.8,0.8l0,0l0,0c0.5,0,0.8-0.3,0.8-0.8v0v0C117.1,16.6,116.8,16.3,116.3,16.3 M116.3,18
		L116.3,18c-0.6,0-0.8,0.3-0.8,0.8v0c0,0.6,0.3,0.8,0.8,0.8h0c0.5,0,0.8-0.3,0.8-0.8v0l0,0C117.1,18.3,116.8,18,116.3,18 M116.3,7.8
		L116.3,7.8c-0.6,0-0.8,0.3-0.8,0.8v0c0,0.5,0.3,0.8,0.8,0.8c0.6,0,0.8-0.3,0.8-0.8C117.1,8,116.8,7.8,116.3,7.8L116.3,7.8
		L116.3,7.8z M116.3,4.3c-0.6,0-0.8,0.3-0.8,0.8v0c0,0.5,0.3,0.8,0.8,0.8h0c0.5,0,0.8-0.3,0.8-0.8C117.1,4.6,116.8,4.3,116.3,4.3
		 M121.4,7.8L121.4,7.8c-0.6,0-0.8,0.3-0.8,0.8c0,0.6,0.3,0.8,0.8,0.8c0.6,0,0.8-0.3,0.8-0.8v0C122.2,8,121.9,7.8,121.4,7.8
		 M119.7,11.1c0.6,0,0.8-0.3,0.8-0.8v0c0-0.6-0.3-0.8-0.8-0.8c-0.6,0-0.8,0.3-0.8,0.8S119.1,11.1,119.7,11.1 M118,6L118,6
		c-0.6,0-0.8,0.3-0.8,0.8v0c0,0.6,0.3,0.8,0.8,0.8c0.6,0,0.8-0.3,0.8-0.8C118.8,6.3,118.5,6,118,6 M118.8,8.6c0-0.6-0.3-0.8-0.8-0.8
		h0c-0.5,0-0.8,0.3-0.8,0.8c0,0.6,0.3,0.8,0.8,0.8S118.8,9.1,118.8,8.6 M118.8,10.3c0-0.6-0.3-0.8-0.8-0.8c-0.6,0-0.8,0.3-0.8,0.8v0
		c0,0.6,0.3,0.8,0.8,0.8C118.5,11.1,118.8,10.8,118.8,10.3z M119.7,6L119.7,6c-0.6,0-0.8,0.3-0.8,0.8h0c0,0.6,0.3,0.8,0.8,0.8
		c0.6,0,0.8-0.3,0.8-0.8C120.5,6.3,120.2,6,119.7,6 M121.4,6c-0.6,0-0.8,0.3-0.8,0.8c0,0.6,0.3,0.8,0.8,0.8h0c0.5,0,0.8-0.3,0.8-0.8
		v0C122.2,6.3,121.9,6,121.4,6 M116.3,6L116.3,6c-0.6,0-0.8,0.3-0.8,0.8c0,0.6,0.3,0.8,0.8,0.8c0.6,0,0.8-0.3,0.8-0.8v0
		C117.1,6.3,116.8,6,116.3,6 M116.3,11.1c0.6,0,0.8-0.3,0.8-0.8s-0.3-0.8-0.8-0.8c-0.6,0-0.8,0.3-0.8,0.8S115.7,11.1,116.3,11.1
		 M122.2,10.3c0-0.5-0.3-0.8-0.8-0.8c-0.6,0-0.8,0.3-0.8,0.8c0,0.6,0.3,0.8,0.8,0.8C121.9,11.1,122.2,10.9,122.2,10.3L122.2,10.3
		L122.2,10.3L122.2,10.3L122.2,10.3z M123.1,7.8L123.1,7.8c-0.6,0-0.8,0.3-0.8,0.8v0c0,0.6,0.3,0.8,0.8,0.8c0.6,0,0.8-0.3,0.8-0.8
		C123.9,8,123.6,7.8,123.1,7.8 M122.3,10.3c0,0.5,0.3,0.8,0.8,0.8c0.6,0,0.8-0.3,0.8-0.8c0-0.6-0.3-0.8-0.8-0.8
		C122.5,9.5,122.3,9.7,122.3,10.3C122.3,10.3,122.3,10.3,122.3,10.3z M124.8,7.7L124.8,7.7c0.6,0,0.8-0.3,0.8-0.8
		c0-0.6-0.3-0.8-0.8-0.8c-0.6,0-0.8,0.3-0.8,0.8v0C124,7.4,124.2,7.7,124.8,7.7 M124.8,6c0.6,0,0.8-0.3,0.8-0.8
		c0-0.6-0.3-0.8-0.8-0.8c-0.6,0-0.8,0.3-0.8,0.8C124,5.7,124.2,6,124.8,6 M123.1,4.3L123.1,4.3c-0.5,0-0.8,0.3-0.8,0.8v0
		c0,0.5,0.3,0.8,0.8,0.8h0c0.6,0,0.8-0.3,0.8-0.8C123.9,4.6,123.6,4.3,123.1,4.3"/>
	<path class="st0" d="M118,19.7L118,19.7c-0.6,0-0.8,0.3-0.8,0.8h-0.1c0-0.6-0.3-0.8-0.8-0.8c-0.6,0-0.8,0.3-0.8,0.8h-0.1
		c0-0.6-0.3-0.8-0.8-0.8v-0.1c0.6,0,0.8-0.3,0.8-0.8c0-0.6-0.3-0.8-0.8-0.8V18c0.6,0,0.8-0.3,0.8-0.8c0-0.6-0.3-0.8-0.8-0.8v-0.1
		c0.6,0,0.8-0.3,0.8-0.8c0-0.6-0.3-0.8-0.8-0.8v-0.1c0.6,0,0.8-0.3,0.8-0.8c0-0.6-0.3-0.8-0.8-0.8v-0.1c0.6,0,0.8-0.3,0.8-0.8
		c0-0.6-0.3-0.8-0.8-0.8v-0.1c0.6,0,0.8-0.3,0.8-0.8c0-0.6-0.3-0.8-0.8-0.8V9.4c0.6,0,0.8-0.3,0.8-0.8c0-0.6-0.3-0.8-0.8-0.8V7.7
		c0.6,0,0.8-0.3,0.8-0.8c0-0.6-0.3-0.8-0.8-0.8V6c0.6,0,0.8-0.3,0.8-0.8c0-0.6-0.3-0.8-0.8-0.8V4.3c0.6,0,0.8-0.3,0.8-0.8h0.1
		c0,0.6,0.3,0.8,0.8,0.8c0.6,0,0.8-0.3,0.8-0.8h0.1c0,0.6,0.3,0.8,0.8,0.8h0c0.6,0,0.8-0.3,0.8-0.8h0.1c0,0.6,0.3,0.8,0.8,0.8h0
		c0.6,0,0.8-0.3,0.8-0.8h0.1c0,0.6,0.3,0.8,0.8,0.8h0c0.6,0,0.8-0.3,0.8-0.8h0.1c0,0.6,0.3,0.8,0.8,0.8v0c0.6,0,0.8-0.3,0.8-0.8
		c0-0.6-0.3-0.8-0.8-0.8c-0.6,0-0.8,0.3-0.8,0.8h-0.1c0-0.6-0.3-0.8-0.8-0.8s-0.8,0.3-0.8,0.8h-0.1c0-0.6-0.3-0.8-0.8-0.8
		c-0.6,0-0.8,0.3-0.8,0.8h-0.1c0-0.6-0.3-0.8-0.8-0.8s-0.8,0.3-0.8,0.8h-0.1c0-0.6-0.3-0.8-0.8-0.8c-0.6,0-0.8,0.3-0.8,0.8h-0.1
		c0-0.6-0.3-0.8-0.8-0.8c-0.6,0-0.8,0.3-0.8,0.8c0,0.6,0.3,0.8,0.8,0.8v0.1c-0.6,0-0.8,0.3-0.8,0.8c0,0.6,0.3,0.8,0.8,0.8V6
		c-0.6,0-0.8,0.3-0.8,0.8s0.3,0.8,0.8,0.8v0.1c-0.6,0-0.8,0.3-0.8,0.8c0,0.6,0.3,0.8,0.8,0.8v0.1c-0.6,0-0.8,0.3-0.8,0.8
		s0.3,0.8,0.8,0.8v0.1c-0.6,0-0.8,0.3-0.8,0.8c0,0.6,0.3,0.8,0.8,0.8v0.1c-0.6,0-0.8,0.3-0.8,0.8c0,0.6,0.3,0.8,0.8,0.8v0.1
		c-0.6,0-0.8,0.3-0.8,0.8c0,0.6,0.3,0.8,0.8,0.8v0.1c-0.6,0-0.8,0.3-0.8,0.8c0,0.6,0.3,0.8,0.8,0.8V18c-0.6,0-0.8,0.3-0.8,0.8
		s0.3,0.8,0.8,0.8v0.1c-0.6,0-0.8,0.3-0.8,0.8c0,0.6,0.3,0.8,0.8,0.8c0.6,0,0.8-0.3,0.8-0.8h0.1c0,0.6,0.3,0.8,0.8,0.8
		c0.6,0,0.8-0.3,0.8-0.8h0.1c0,0.6,0.3,0.8,0.8,0.8c0.6,0,0.8-0.3,0.8-0.8C118.8,20,118.5,19.7,118,19.7"/>
	<path class="st0" d="M117.2,18.8L117.2,18.8c0,0.6,0.3,0.8,0.8,0.8v0c0.6,0,0.8-0.3,0.8-0.8c0-0.6-0.3-0.8-0.8-0.8v0
		C117.4,18,117.2,18.3,117.2,18.8C117.2,18.8,117.2,18.8,117.2,18.8z M117.2,17.1L117.2,17.1c0,0.6,0.3,0.8,0.8,0.8v0
		c0.6,0,0.8-0.3,0.8-0.8c0-0.6-0.3-0.8-0.8-0.8v0C117.4,16.3,117.2,16.6,117.2,17.1C117.2,17.1,117.2,17.1,117.2,17.1z M117.2,15.4
		L117.2,15.4c0,0.6,0.3,0.9,0.8,0.9v0c0.6,0,0.8-0.3,0.8-0.8c0-0.6-0.3-0.8-0.8-0.8v0C117.4,14.6,117.2,14.9,117.2,15.4 M123.1,12.9
		L123.1,12.9c-0.6,0-0.8,0.3-0.8,0.8h-0.1c0-0.6-0.3-0.8-0.8-0.8c-0.6,0-0.8,0.3-0.8,0.8h-0.1c0-0.6-0.3-0.8-0.8-0.8
		c-0.6,0-0.8,0.3-0.8,0.8h-0.1c0-0.6-0.3-0.8-0.8-0.8c-0.5,0-0.8,0.3-0.8,0.8l0,0l0,0c0,0.5,0.3,0.8,0.8,0.8v0
		c0.6,0,0.8-0.3,0.8-0.8h0.1c0,0.6,0.3,0.8,0.8,0.8c0.6,0,0.8-0.3,0.8-0.8h0.1c0,0.6,0.3,0.8,0.8,0.8c0.6,0,0.8-0.3,0.8-0.8h0.1
		c0,0.6,0.3,0.8,0.8,0.8c0.6,0,0.8-0.3,0.8-0.8C123.9,13.2,123.6,12.9,123.1,12.9 M124.8,11.2L124.8,11.2c-0.6,0-0.8,0.3-0.8,0.8
		h-0.1c0-0.6-0.3-0.8-0.8-0.8c-0.5,0-0.8,0.3-0.8,0.8v0c0,0.5,0.3,0.8,0.8,0.8v0c0.6,0,0.8-0.3,0.8-0.8h0.1c0,0.6,0.3,0.8,0.8,0.8
		c0.6,0,0.8-0.3,0.8-0.8C125.6,11.4,125.3,11.2,124.8,11.2 M124.8,9.5c-0.6,0-0.8,0.3-0.8,0.8c0,0.6,0.3,0.8,0.8,0.8
		c0.6,0,0.8-0.3,0.8-0.8C125.6,9.7,125.3,9.5,124.8,9.5 M124.8,7.8L124.8,7.8c-0.6,0-0.8,0.3-0.8,0.8c0,0.3,0.1,0.5,0.2,0.6
		c0.1,0.1,0.3,0.2,0.6,0.2c0.6,0,0.8-0.3,0.8-0.8C125.6,8,125.3,7.8,124.8,7.8 M138.7,7.7L138.7,7.7L138.7,7.7
		c0.6,0,0.8-0.3,0.8-0.8c0-0.6-0.3-0.8-0.8-0.8c-0.6,0-0.8,0.3-0.8,0.8l0,0l0,0C137.9,7.4,138.2,7.7,138.7,7.7 M137,7.7L137,7.7
		c0.6,0,0.8-0.3,0.8-0.8v0c0-0.6-0.3-0.8-0.8-0.8c-0.6,0-0.8,0.3-0.8,0.8l0,0l0,0C136.2,7.4,136.5,7.7,137,7.7 M136.2,8.6
		c0,0.6,0.3,0.8,0.8,0.8c0.6,0,0.8-0.3,0.8-0.8v0c0-0.5-0.3-0.8-0.8-0.8l0,0l0,0C136.5,7.8,136.2,8,136.2,8.6L136.2,8.6L136.2,8.6
		L136.2,8.6z M137,11.2c-0.6,0-0.8,0.3-0.8,0.8v0c0,0.6,0.3,0.8,0.8,0.8s0.8-0.3,0.8-0.8S137.6,11.2,137,11.2 M137,12.9
		c-0.6,0-0.8,0.3-0.8,0.8v0c0,0.6,0.3,0.8,0.8,0.8s0.8-0.3,0.8-0.8S137.6,12.9,137,12.9 M137.9,15.4c0-0.6-0.3-0.8-0.8-0.8
		c-0.6,0-0.8,0.3-0.8,0.8v0c0,0.6,0.3,0.8,0.8,0.8C137.6,16.2,137.9,16,137.9,15.4L137.9,15.4z M137,18L137,18
		c0.6,0,0.8-0.3,0.8-0.8v0c0-0.6-0.3-0.8-0.8-0.8c-0.6,0-0.8,0.3-0.8,0.8l0,0l0,0C136.2,17.7,136.5,18,137,18 M134.5,18.8
		c0,0.6,0.3,0.8,0.8,0.8h0c0.5,0,0.8-0.3,0.8-0.8v0c0-0.5-0.3-0.8-0.8-0.8l0,0l0,0C134.8,18,134.5,18.3,134.5,18.8L134.5,18.8
		L134.5,18.8z M133.6,19.7c0.6,0,0.8-0.3,0.8-0.8v0c0-0.5-0.3-0.8-0.8-0.8l0,0l0,0c-0.5,0-0.8,0.3-0.8,0.8v0
		C132.8,19.4,133.1,19.7,133.6,19.7 M131.9,19.7L131.9,19.7c0.6,0,0.8-0.3,0.8-0.8v0c0-0.5-0.3-0.8-0.8-0.8l0,0l0,0
		c-0.5,0-0.8,0.3-0.8,0.8v0C131.1,19.4,131.4,19.7,131.9,19.7 M130.2,18L130.2,18c0.6,0,0.8-0.3,0.8-0.8v0c0-0.5-0.3-0.8-0.8-0.8
		c-0.6,0-0.8,0.3-0.8,0.8v0C129.4,17.7,129.7,18,130.2,18 M130.2,12.9c-0.5,0-0.8,0.3-0.8,0.8v0c0,0.5,0.3,0.8,0.8,0.8
		c0.5,0,0.8-0.3,0.8-0.8v0C131.1,13.2,130.8,12.9,130.2,12.9 M130.2,11.2c-0.5,0-0.8,0.3-0.8,0.8v0c0,0.5,0.3,0.8,0.8,0.8
		c0.5,0,0.8-0.3,0.8-0.8v0C131.1,11.4,130.8,11.2,130.2,11.2 M131.9,6L131.9,6c-0.6,0-0.8,0.3-0.8,0.8l0,0l0,0
		c0,0.5,0.3,0.8,0.8,0.8h0c0.5,0,0.8-0.3,0.8-0.8h0C132.8,6.3,132.5,6,131.9,6 M131.9,4.3c-0.5,0-0.8,0.3-0.8,0.8v0
		c0,0.5,0.3,0.8,0.8,0.8h0c0.6,0,0.8-0.3,0.8-0.8S132.5,4.3,131.9,4.3 M133.6,6c0.6,0,0.8-0.3,0.8-0.8v0c0-0.5-0.3-0.8-0.8-0.8h0
		c-0.5,0-0.8,0.3-0.8,0.8v0C132.8,5.7,133.1,6,133.6,6 M134.5,5.2c0,0.6,0.3,0.8,0.8,0.8c0.6,0,0.8-0.3,0.8-0.8v0
		c0-0.6-0.3-0.8-0.8-0.8C134.8,4.3,134.5,4.6,134.5,5.2L134.5,5.2z M135.3,9.5c-0.6,0-0.8,0.3-0.8,0.8c0,0.6,0.3,0.8,0.8,0.8v0
		c0.6,0,0.8-0.3,0.8-0.8v0C136.2,9.7,135.9,9.5,135.3,9.5 M134.5,17.1c0-0.6-0.3-0.8-0.8-0.8c-0.6,0-0.8,0.3-0.8,0.8
		c0,0.5,0.3,0.8,0.8,0.8h0.1C134.2,17.9,134.5,17.7,134.5,17.1 M131.9,16.2L131.9,16.2c0.6,0,0.8-0.3,0.8-0.8c0-0.6-0.3-0.8-0.8-0.8
		v0c-0.5,0-0.8,0.3-0.8,0.8v0C131.1,16,131.4,16.2,131.9,16.2 M132.8,8.6c0-0.6-0.3-0.8-0.8-0.8h0c-0.5,0-0.8,0.3-0.8,0.8
		c0,0.6,0.3,0.8,0.8,0.8C132.5,9.4,132.8,9.1,132.8,8.6 M131.9,14.5L131.9,14.5c0.6,0,0.8-0.3,0.8-0.8c0-0.6-0.3-0.8-0.8-0.8v0
		c-0.5,0-0.8,0.3-0.8,0.8v0C131.1,14.3,131.4,14.5,131.9,14.5 M132.8,12c0-0.6-0.3-0.8-0.8-0.8v0c-0.5,0-0.8,0.3-0.8,0.8v0
		c0,0.5,0.3,0.8,0.8,0.8v0C132.5,12.8,132.8,12.6,132.8,12 M131.9,11.1L131.9,11.1c0.6,0,0.8-0.3,0.8-0.8c0-0.6-0.3-0.8-0.8-0.8
		c-0.6,0-0.8,0.3-0.8,0.8S131.4,11.1,131.9,11.1 M133.6,6L133.6,6c-0.6,0-0.8,0.3-0.8,0.8c0,0.6,0.3,0.8,0.8,0.8
		c0.6,0,0.8-0.3,0.8-0.8v0C134.5,6.3,134.2,6,133.6,6 M135.3,14.5L135.3,14.5c0.6,0,0.8-0.3,0.8-0.8v0c0-0.6-0.3-0.8-0.8-0.8v0
		c-0.6,0-0.8,0.3-0.8,0.8C134.5,14.3,134.8,14.5,135.3,14.5 M135.3,14.6L135.3,14.6c-0.6,0-0.8,0.3-0.8,0.8c0,0.6,0.3,0.8,0.8,0.8v0
		c0.6,0,0.8-0.3,0.8-0.8v0C136.2,14.9,135.9,14.6,135.3,14.6 M135.3,12.8c0.6,0,0.8-0.3,0.8-0.8v0c0-0.6-0.3-0.8-0.8-0.8v0
		c-0.6,0-0.8,0.3-0.8,0.8C134.5,12.6,134.8,12.8,135.3,12.8L135.3,12.8z M135.3,9.4c0.6,0,0.8-0.3,0.8-0.8v0c0-0.5-0.3-0.8-0.8-0.8
		l0,0l0,0c-0.6,0-0.8,0.3-0.8,0.8S134.8,9.4,135.3,9.4 M135.3,7.7L135.3,7.7c0.6,0,0.8-0.3,0.8-0.8v0c0-0.6-0.3-0.8-0.8-0.8
		c-0.6,0-0.8,0.3-0.8,0.8v0C134.5,7.4,134.8,7.7,135.3,7.7 M131.1,8.6L131.1,8.6c0-0.6-0.3-0.8-0.8-0.8h0c-0.5,0-0.8,0.3-0.8,0.8h0
		c0,0.6,0.3,0.8,0.8,0.8C130.8,9.4,131.1,9.1,131.1,8.6 M129.4,10.3c0,0.6,0.3,0.8,0.8,0.8c0.6,0,0.8-0.3,0.8-0.8h0
		c0-0.6-0.3-0.8-0.8-0.8C129.7,9.5,129.4,9.7,129.4,10.3L129.4,10.3z M130.2,16.2c0.5,0,0.8-0.3,0.8-0.8v0c0-0.5-0.3-0.8-0.8-0.8
		c-0.6,0-0.8,0.3-0.8,0.8S129.7,16.2,130.2,16.2 M131.9,18L131.9,18c0.6,0,0.8-0.3,0.8-0.8h0c0-0.6-0.3-0.8-0.8-0.8v0
		c-0.5,0-0.8,0.3-0.8,0.8v0C131.1,17.7,131.4,18,131.9,18 M136.2,17.1c0-0.6-0.3-0.8-0.8-0.8v0c-0.6,0-0.8,0.3-0.8,0.8
		c0,0.5,0.3,0.8,0.8,0.8l0,0l0,0C135.9,17.9,136.2,17.7,136.2,17.1L136.2,17.1z M130.2,6c-0.6,0-0.8,0.3-0.8,0.8
		c0,0.6,0.3,0.8,0.8,0.8h0c0.5,0,0.8-0.3,0.8-0.8v0C131.1,6.3,130.8,6,130.2,6 M137,9.5c-0.6,0-0.8,0.3-0.8,0.8v0
		c0,0.6,0.3,0.8,0.8,0.8s0.8-0.3,0.8-0.8C137.9,9.7,137.6,9.5,137,9.5 M138.7,6c0.6,0,0.8-0.3,0.8-0.8c0-0.6-0.3-0.8-0.8-0.8
		s-0.8,0.3-0.8,0.8v0C137.9,5.7,138.2,6,138.7,6 M136.2,5.2c0,0.6,0.3,0.8,0.8,0.8c0.6,0,0.8-0.3,0.8-0.8v0c0-0.6-0.3-0.8-0.8-0.8
		C136.5,4.3,136.2,4.6,136.2,5.2L136.2,5.2L136.2,5.2z"/>
	<path class="st0" d="M129.4,5.2L129.4,5.2c0,0.6,0.3,0.8,0.8,0.8c0.6,0,0.8-0.3,0.8-0.8c0-0.6-0.3-0.8-0.8-0.8V4.3
		c0.6,0,0.8-0.3,0.8-0.8h0.1c0,0.6,0.3,0.8,0.8,0.8c0.6,0,0.8-0.3,0.8-0.8h0.1c0,0.6,0.3,0.8,0.8,0.8c0.6,0,0.8-0.3,0.8-0.8h0.1
		c0,0.6,0.3,0.8,0.8,0.8c0.6,0,0.8-0.3,0.8-0.8h0.1c0,0.6,0.3,0.8,0.8,0.8c0.6,0,0.8-0.3,0.8-0.8c0-0.6-0.3-0.8-0.8-0.8
		c-0.6,0-0.8,0.3-0.8,0.8h-0.1c0-0.6-0.3-0.8-0.8-0.8c-0.6,0-0.8,0.3-0.8,0.8h-0.1c0-0.6-0.3-0.8-0.8-0.8c-0.6,0-0.8,0.3-0.8,0.8
		h-0.1c0-0.6-0.3-0.8-0.8-0.8c-0.6,0-0.8,0.3-0.8,0.8h-0.1c0-0.6-0.3-0.8-0.8-0.8c-0.6,0-0.8,0.3-0.8,0.8c0,0.6,0.3,0.8,0.8,0.8v0.1
		C129.7,4.3,129.4,4.6,129.4,5.2"/>
	<path class="st0" d="M137,19.7L137,19.7c-0.6,0-0.8,0.3-0.8,0.8h-0.1c0-0.6-0.3-0.8-0.8-0.8c-0.6,0-0.8,0.3-0.8,0.8h-0.1
		c0-0.6-0.3-0.8-0.8-0.8c-0.6,0-0.8,0.3-0.8,0.8h-0.1c0-0.6-0.3-0.8-0.8-0.8s-0.8,0.3-0.8,0.8h-0.1c0-0.6-0.3-0.8-0.8-0.8v-0.1
		c0.6,0,0.8-0.3,0.8-0.8s-0.3-0.8-0.8-0.8c-0.6,0-0.8,0.3-0.8,0.8h-0.1c0-0.6-0.3-0.8-0.8-0.8V18c0.6,0,0.8-0.3,0.8-0.8
		s-0.3-0.8-0.8-0.8v-0.1c0.6,0,0.8-0.3,0.8-0.8s-0.3-0.8-0.8-0.8v-0.1c0.6,0,0.8-0.3,0.8-0.8c0-0.6-0.3-0.8-0.8-0.8v-0.1
		c0.6,0,0.8-0.3,0.8-0.8c0-0.6-0.3-0.8-0.8-0.8v-0.1c0.6,0,0.8-0.3,0.8-0.8c0-0.6-0.3-0.8-0.8-0.8V9.4c0.6,0,0.8-0.3,0.8-0.8
		c0-0.6-0.3-0.8-0.8-0.8V7.7c0.6,0,0.8-0.3,0.8-0.8S129.1,6,128.5,6V6c0.6,0,0.8-0.3,0.8-0.8h0c0-0.6-0.3-0.8-0.8-0.8
		c-0.6,0-0.8,0.3-0.8,0.8S128,6,128.5,6V6c-0.6,0-0.8,0.3-0.8,0.8s0.3,0.8,0.8,0.8v0.1c-0.6,0-0.8,0.3-0.8,0.8
		c0,0.6,0.3,0.8,0.8,0.8v0.1c-0.6,0-0.8,0.3-0.8,0.8c0,0.6,0.3,0.8,0.8,0.8v0.1c-0.6,0-0.8,0.3-0.8,0.8c0,0.6,0.3,0.8,0.8,0.8v0.1
		c-0.6,0-0.8,0.3-0.8,0.8s0.3,0.8,0.8,0.8v0.1c-0.6,0-0.8,0.3-0.8,0.8s0.3,0.8,0.8,0.8v0.1c-0.6,0-0.8,0.3-0.8,0.8s0.3,0.8,0.8,0.8
		V18c-0.6,0-0.8,0.3-0.8,0.8s0.3,0.8,0.8,0.8c0.6,0,0.8-0.3,0.8-0.8h0.1c0,0.6,0.3,0.8,0.8,0.8v0.1c-0.6,0-0.8,0.3-0.8,0.8
		c0,0.6,0.3,0.8,0.8,0.8c0.6,0,0.8-0.3,0.8-0.8h0.1c0,0.6,0.3,0.8,0.8,0.8c0.6,0,0.8-0.3,0.8-0.8h0.1c0,0.6,0.3,0.8,0.8,0.8
		c0.6,0,0.8-0.3,0.8-0.8h0.1c0,0.6,0.3,0.8,0.8,0.8c0.6,0,0.8-0.3,0.8-0.8h0.1c0,0.6,0.3,0.8,0.8,0.8c0.6,0,0.8-0.3,0.8-0.8
		C137.9,20,137.6,19.7,137,19.7"/>
	<path class="st0" d="M138.7,18L138.7,18c-0.6,0-0.8,0.3-0.8,0.8h-0.1c0-0.6-0.3-0.8-0.8-0.8s-0.8,0.3-0.8,0.8l0,0l0,0v0
		c0,0.6,0.3,0.8,0.8,0.8v0c0.6,0,0.8-0.3,0.8-0.8h0.1c0,0.6,0.3,0.8,0.8,0.8c0.6,0,0.8-0.3,0.8-0.8C139.6,18.3,139.3,18,138.7,18
		 M138.7,16.3L138.7,16.3c-0.6,0-0.8,0.3-0.8,0.8s0.3,0.8,0.8,0.8v0c0.6,0,0.8-0.3,0.8-0.8C139.6,16.6,139.3,16.3,138.7,16.3
		 M138.7,14.6L138.7,14.6c-0.6,0-0.8,0.3-0.8,0.8s0.3,0.8,0.8,0.8v0c0.6,0,0.8-0.3,0.8-0.8S139.3,14.6,138.7,14.6 M138.7,12.9
		L138.7,12.9c-0.6,0-0.8,0.3-0.8,0.8s0.3,0.8,0.8,0.8v0c0.6,0,0.8-0.3,0.8-0.8C139.6,13.2,139.3,12.9,138.7,12.9 M138.7,11.2
		L138.7,11.2c-0.6,0-0.8,0.3-0.8,0.8s0.3,0.8,0.8,0.8v0c0.6,0,0.8-0.3,0.8-0.8C139.6,11.4,139.3,11.2,138.7,11.2 M138.7,9.5
		c-0.6,0-0.8,0.3-0.8,0.8c0,0.6,0.3,0.8,0.8,0.8v0c0.6,0,0.8-0.3,0.8-0.8C139.6,9.7,139.3,9.5,138.7,9.5 M138.7,7.8L138.7,7.8
		c-0.6,0-0.8,0.3-0.8,0.8c0,0.6,0.3,0.8,0.8,0.8c0.6,0,0.8-0.3,0.8-0.8C139.6,8,139.3,7.8,138.7,7.8 M144.2,4.3
		c-0.6,0-0.8,0.3-0.8,0.8h0c0,0.6,0.3,0.8,0.8,0.8c0.6,0,0.8-0.3,0.8-0.8C145,4.6,144.8,4.3,144.2,4.3 M149.3,19.7L149.3,19.7
		c-0.6,0-0.8,0.3-0.8,0.8h-0.1c0-0.6-0.3-0.8-0.8-0.8c-0.6,0-0.8,0.3-0.8,0.8h-0.1c0-0.6-0.3-0.8-0.8-0.8v-0.1
		c0.6,0,0.8-0.3,0.8-0.8v0c0-0.6-0.3-0.8-0.8-0.8V18c0.6,0,0.8-0.3,0.8-0.8v0c0-0.6-0.3-0.8-0.8-0.8v-0.1c0.6,0,0.8-0.3,0.8-0.8v0
		c0-0.6-0.3-0.8-0.8-0.8v-0.1c0.6,0,0.8-0.3,0.8-0.8v0c0-0.6-0.3-0.8-0.8-0.8v-0.1c0.6,0,0.8-0.3,0.8-0.8v0c0-0.6-0.3-0.8-0.8-0.8
		v-0.1c0.6,0,0.8-0.3,0.8-0.8h0c0-0.6-0.3-0.8-0.8-0.8V9.4c0.6,0,0.8-0.3,0.8-0.8c0-0.6-0.3-0.8-0.8-0.8V7.7c0.6,0,0.8-0.3,0.8-0.8
		c0-0.6-0.3-0.8-0.8-0.8V6c0.6,0,0.8-0.3,0.8-0.8c0-0.6-0.3-0.8-0.8-0.8h0c-0.5,0-0.8,0.3-0.8,0.8c0,0.6,0.3,0.8,0.8,0.8V6
		c-0.6,0-0.8,0.3-0.8,0.8c0,0.6,0.3,0.8,0.8,0.8v0.1c-0.6,0-0.8,0.3-0.8,0.8c0,0.6,0.3,0.8,0.8,0.8v0.1c-0.6,0-0.8,0.3-0.8,0.8
		s0.3,0.8,0.8,0.8v0.1c-0.6,0-0.8,0.3-0.8,0.8c0,0.6,0.3,0.8,0.8,0.8v0.1c-0.6,0-0.8,0.3-0.8,0.8c0,0.6,0.3,0.8,0.8,0.8v0.1
		c-0.6,0-0.8,0.3-0.8,0.8c0,0.6,0.3,0.8,0.8,0.8v0.1c-0.6,0-0.8,0.3-0.8,0.8c0,0.6,0.3,0.8,0.8,0.8V18c-0.6,0-0.8,0.3-0.8,0.8
		c0,0.6,0.3,0.8,0.8,0.8v0.1c-0.6,0-0.8,0.3-0.8,0.8c0,0.6,0.3,0.8,0.8,0.8s0.8-0.3,0.8-0.8h0.1c0,0.6,0.3,0.8,0.8,0.8
		c0.6,0,0.8-0.3,0.8-0.8h0.1c0,0.6,0.3,0.8,0.8,0.8c0.6,0,0.8-0.3,0.8-0.8C150.1,20,149.9,19.7,149.3,19.7"/>
	<path class="st0" d="M147.6,6L147.6,6c0.6,0,0.8-0.3,0.8-0.8c0-0.6-0.3-0.8-0.8-0.8s-0.8,0.3-0.8,0.8v0C146.8,5.7,147.1,6,147.6,6
		 M147.6,7.7c0.6,0,0.8-0.3,0.8-0.8c0-0.6-0.3-0.8-0.8-0.8h0c-0.5,0-0.8,0.3-0.8,0.8C146.8,7.4,147.1,7.7,147.6,7.7 M147.6,16.2
		c0.6,0,0.8-0.3,0.8-0.8s-0.3-0.8-0.8-0.8c-0.6,0-0.8,0.3-0.8,0.8v0C146.8,16,147.1,16.2,147.6,16.2 M147.6,16.3
		c-0.6,0-0.8,0.3-0.8,0.8v0c0,0.6,0.3,0.8,0.8,0.8l0,0l0,0c0.6,0,0.8-0.3,0.8-0.8C148.4,16.6,148.2,16.3,147.6,16.3 M147.6,19.7
		L147.6,19.7c0.6,0,0.8-0.3,0.8-0.8s-0.3-0.8-0.8-0.8h0c-0.5,0-0.8,0.3-0.8,0.8v0C146.8,19.4,147.1,19.7,147.6,19.7 M146.8,13.7
		c0,0.6,0.3,0.8,0.8,0.8c0.6,0,0.8-0.3,0.8-0.8c0-0.6-0.3-0.8-0.8-0.8C147.1,12.9,146.8,13.2,146.8,13.7L146.8,13.7z M146.8,12
		c0,0.6,0.3,0.8,0.8,0.8c0.6,0,0.8-0.3,0.8-0.8c0-0.6-0.3-0.8-0.8-0.8C147.1,11.2,146.8,11.4,146.8,12C146.8,12,146.8,12,146.8,12z
		 M148.4,10.3c0-0.6-0.3-0.8-0.8-0.8c-0.6,0-0.8,0.3-0.8,0.8h0c0,0.6,0.3,0.8,0.8,0.8C148.2,11.1,148.4,10.8,148.4,10.3L148.4,10.3z
		 M146.8,8.6c0,0.6,0.3,0.8,0.8,0.8c0.6,0,0.8-0.3,0.8-0.8c0-0.6-0.3-0.8-0.8-0.8C147.1,7.8,146.8,8,146.8,8.6z M149.3,18L149.3,18
		c-0.6,0-0.8,0.3-0.8,0.8c0,0.6,0.3,0.8,0.8,0.8v0c0.6,0,0.8-0.3,0.8-0.8C150.1,18.3,149.9,18,149.3,18 M149.3,16.3L149.3,16.3
		c-0.6,0-0.8,0.3-0.8,0.8c0,0.6,0.3,0.8,0.8,0.8v0c0.6,0,0.8-0.3,0.8-0.8C150.1,16.6,149.9,16.3,149.3,16.3 M149.3,14.6L149.3,14.6
		c-0.6,0-0.8,0.3-0.8,0.8s0.3,0.8,0.8,0.8v0c0.6,0,0.8-0.3,0.8-0.8C150.1,14.9,149.9,14.6,149.3,14.6 M149.3,12.9L149.3,12.9
		c-0.6,0-0.8,0.3-0.8,0.8s0.3,0.8,0.8,0.8v0c0.6,0,0.8-0.3,0.8-0.8C150.1,13.2,149.9,12.9,149.3,12.9 M149.3,11.2L149.3,11.2
		c-0.6,0-0.8,0.3-0.8,0.8s0.3,0.8,0.8,0.8v0c0.6,0,0.8-0.3,0.8-0.8C150.1,11.4,149.9,11.2,149.3,11.2 M149.3,9.5
		c-0.6,0-0.8,0.3-0.8,0.8h0c0,0.6,0.3,0.8,0.8,0.8v0c0.6,0,0.8-0.3,0.8-0.8C150.1,9.7,149.9,9.5,149.3,9.5 M149.3,9.4
		c0.6,0,0.8-0.3,0.8-0.8s-0.3-0.8-0.8-0.8c-0.6,0-0.8,0.3-0.8,0.8S148.8,9.4,149.3,9.4 M149.3,6c-0.6,0-0.8,0.3-0.8,0.8
		c0,0.6,0.3,0.8,0.8,0.8c0.6,0,0.8-0.3,0.8-0.8C150.1,6.3,149.9,6,149.3,6 M150.1,5.2c0-0.6-0.3-0.8-0.8-0.8c-0.6,0-0.8,0.3-0.8,0.8
		v0c0,0.6,0.3,0.8,0.8,0.8S150.1,5.7,150.1,5.2L150.1,5.2z M151,4.3c-0.6,0-0.8,0.3-0.8,0.8v0c0,0.5,0.3,0.8,0.8,0.8
		c0.6,0,0.8-0.3,0.8-0.8h0C151.8,4.6,151.6,4.3,151,4.3"/>
	<path class="st0" d="M152.7,4.3L152.7,4.3c0.6-0.1,0.8-0.3,0.8-0.9c0-0.6-0.3-0.8-0.8-0.8c-0.6,0-0.8,0.3-0.8,0.8h-0.1
		c0-0.6-0.3-0.8-0.8-0.8c-0.6,0-0.8,0.3-0.8,0.8h-0.1c0-0.6-0.3-0.8-0.8-0.8c-0.6,0-0.8,0.3-0.8,0.8h-0.1c0-0.6-0.3-0.8-0.8-0.8
		c-0.6,0-0.8,0.3-0.8,0.8h-0.1c0-0.6-0.3-0.8-0.8-0.8c-0.6,0-0.8,0.3-0.8,0.8H145c0-0.6-0.3-0.8-0.8-0.8c-0.6,0-0.8,0.3-0.8,0.8
		h-0.1c0-0.6-0.3-0.8-0.8-0.8c-0.6,0-0.8,0.3-0.8,0.8c0,0.6,0.3,0.8,0.8,0.8v0.1c-0.6,0-0.8,0.3-0.8,0.8c0,0.6,0.3,0.8,0.8,0.8
		s0.8-0.3,0.8-0.8h0c0-0.6-0.3-0.8-0.8-0.8V4.3c0.6,0,0.8-0.3,0.8-0.8h0.1c0,0.6,0.3,0.8,0.8,0.8S145,4,145,3.5h0.1
		c0,0.6,0.3,0.8,0.8,0.8c0.6,0,0.8-0.3,0.8-0.8h0.1c0,0.6,0.3,0.8,0.8,0.8c0.6,0,0.8-0.3,0.8-0.8h0.1c0,0.6,0.3,0.8,0.8,0.8
		s0.8-0.3,0.8-0.8h0.1c0,0.6,0.3,0.8,0.8,0.8c0.6,0,0.8-0.3,0.8-0.8h0.1C151.9,4,152.2,4.3,152.7,4.3L152.7,4.3
		c-0.6,0-0.8,0.3-0.8,0.8c0,0.6,0.3,0.8,0.8,0.8c0.6,0,0.8-0.3,0.8-0.8C153.5,4.6,153.3,4.3,152.7,4.3"/>
</g>
</svg>
